<svg width="180" height="58" viewBox="0 0 180 58" fill="none" xmlns="http://www.w3.org/2000/svg">
<path d="M179 50.7075C179 53.756 176.709 56.2253 173.874 56.2253H6.13243C3.2995 56.2253 1 53.756 1 50.7075V6.70449C1 3.65743 3.2995 1.17944 6.13243 1.17944H173.873C176.709 1.17944 178.999 3.65743 178.999 6.70449L179 50.7075Z" fill="black"/>
<path d="M173.333 1.24592C176.42 1.24592 178.932 3.9399 178.932 7.25062V50.1541C178.932 53.4648 176.42 56.1588 173.333 56.1588H6.66667C3.58 56.1588 1.06833 53.4648 1.06833 50.1541V7.25062C1.06833 3.9399 3.58 1.24592 6.66667 1.24592H173.333ZM173.333 0.100037H6.66667C3.00167 0.100037 0 3.31959 0 7.25062V50.1541C0 54.0851 3.00167 57.3047 6.66667 57.3047H173.333C176.998 57.3047 180 54.0851 180 50.1541V7.25062C180 3.31959 176.998 0.100037 173.333 0.100037Z" fill="#A6A6A6"/>
<path d="M40.1705 28.3936C40.1318 23.7844 43.6891 21.5419 43.8518 21.4375C41.8371 18.287 38.7145 17.8565 37.6171 17.8222C34.9945 17.5262 32.4505 19.5054 31.1145 19.5054C29.7518 19.5054 27.6945 17.8508 25.4771 17.8994C22.6238 17.9466 19.9545 19.7185 18.4905 22.4701C15.4691 28.0804 17.7225 36.3251 20.6171 40.86C22.0651 43.0809 23.7571 45.5608 25.9718 45.4735C28.1385 45.3777 28.9478 43.9919 31.5625 43.9919C34.1531 43.9919 34.9131 45.4735 37.1718 45.4178C39.4971 45.3777 40.9611 43.1868 42.3585 40.9458C44.0318 38.4002 44.7038 35.8932 44.7305 35.7645C44.6758 35.7444 40.2145 33.9182 40.1705 28.3936Z" fill="white"/>
<path d="M35.9038 14.839C37.0691 13.2758 37.8665 11.1493 37.6451 8.99121C35.9585 9.0713 33.8491 10.2426 32.6345 11.7714C31.5598 13.1185 30.5998 15.3266 30.8478 17.4032C32.7425 17.5548 34.6878 16.3778 35.9038 14.839Z" fill="white"/>
<path d="M71.5269 45.1545H68.4989L66.8402 39.5642H61.0749L59.4949 45.1545H56.5469L62.2589 26.1226H65.7869L71.5269 45.1545ZM66.3402 37.2188L64.8402 32.2492C64.6815 31.7415 64.3842 30.5459 63.9455 28.6639H63.8922C63.7175 29.4733 63.4362 30.6689 63.0495 32.2492L61.5762 37.2188H66.3402Z" fill="white"/>
<path d="M86.2164 38.1241C86.2164 40.4581 85.6284 42.3029 84.4524 43.6572C83.399 44.8628 82.091 45.4649 80.5297 45.4649C78.8444 45.4649 77.6337 44.8156 76.8964 43.5171H76.843V50.7463H74.0004V35.9489C74.0004 34.4816 73.9644 32.9757 73.895 31.4311H76.395L76.5537 33.6064H76.607C77.555 31.9674 78.9937 31.1494 80.9244 31.1494C82.4337 31.1494 83.6937 31.7887 84.7017 33.0686C85.7124 34.35 86.2164 36.0347 86.2164 38.1241ZM83.3204 38.2357C83.3204 36.8999 83.0404 35.7987 82.4777 34.9321C81.863 34.0282 81.0377 33.5763 80.003 33.5763C79.3017 33.5763 78.6644 33.828 78.095 34.3243C77.5244 34.8248 77.151 35.4784 76.9764 36.2878C76.8884 36.6654 76.8444 36.9743 76.8444 37.2174V39.5056C76.8444 40.5038 77.1297 41.3462 77.7004 42.0341C78.271 42.7219 79.0124 43.0652 79.9244 43.0652C80.995 43.0652 81.8284 42.6218 82.4244 41.738C83.0217 40.8528 83.3204 39.6858 83.3204 38.2357Z" fill="white"/>
<path d="M100.932 38.1241C100.932 40.4581 100.344 42.3029 99.167 43.6572C98.115 44.8628 96.807 45.4649 95.2456 45.4649C93.5603 45.4649 92.3496 44.8156 91.6136 43.5171H91.5603V50.7463H88.7176V35.9489C88.7176 34.4816 88.6816 32.9757 88.6123 31.4311H91.1123L91.271 33.6064H91.3243C92.271 31.9674 93.7096 31.1494 95.6416 31.1494C97.1496 31.1494 98.4096 31.7887 99.4203 33.0686C100.427 34.35 100.932 36.0347 100.932 38.1241ZM98.0363 38.2357C98.0363 36.8999 97.755 35.7987 97.1923 34.9321C96.5776 34.0282 95.755 33.5763 94.719 33.5763C94.0163 33.5763 93.3803 33.828 92.8096 34.3243C92.239 34.8248 91.867 35.4784 91.6923 36.2878C91.6056 36.6654 91.5603 36.9743 91.5603 37.2174V39.5056C91.5603 40.5038 91.8456 41.3462 92.4136 42.0341C92.9843 42.7205 93.7256 43.0652 94.6403 43.0652C95.711 43.0652 96.5443 42.6218 97.1403 41.738C97.7377 40.8528 98.0363 39.6858 98.0363 38.2357Z" fill="white"/>
<path d="M117.385 39.8172C117.385 41.4361 116.861 42.7533 115.809 43.7701C114.653 44.8813 113.044 45.4362 110.976 45.4362C109.067 45.4362 107.536 45.0414 106.377 44.2506L107.036 41.7093C108.284 42.5187 109.653 42.9249 111.145 42.9249C112.216 42.9249 113.049 42.6646 113.648 42.1469C114.244 41.6292 114.541 40.9341 114.541 40.0675C114.541 39.2952 114.296 38.6445 113.804 38.1168C113.315 37.5891 112.497 37.0986 111.356 36.6452C108.249 35.4024 106.697 33.5819 106.697 31.1879C106.697 29.6233 107.241 28.3405 108.331 27.3423C109.416 26.3426 110.864 25.8435 112.675 25.8435C114.289 25.8435 115.631 26.1453 116.701 26.7473L115.991 29.2329C114.991 28.6494 113.86 28.3577 112.595 28.3577C111.595 28.3577 110.813 28.6222 110.253 29.1485C109.78 29.619 109.543 30.1925 109.543 30.8718C109.543 31.6241 109.813 32.2462 110.357 32.7353C110.831 33.1872 111.691 33.6763 112.939 34.204C114.465 34.8633 115.587 35.6341 116.308 36.5179C117.027 37.3989 117.385 38.5015 117.385 39.8172Z" fill="white"/>
<path d="M126.784 33.7193H123.651V40.3822C123.651 42.0769 124.203 42.9235 125.31 42.9235C125.818 42.9235 126.239 42.8763 126.572 42.7819L126.651 45.0973C126.091 45.3218 125.354 45.4348 124.44 45.4348C123.318 45.4348 122.44 45.0673 121.807 44.3336C121.176 43.5985 120.859 42.3658 120.859 40.6339V33.7164H118.992V31.4283H120.859V28.9156L123.651 28.0117V31.4283H126.784V33.7193Z" fill="white"/>
<path d="M140.922 38.1797C140.922 40.2891 140.359 42.021 139.236 43.3753C138.059 44.7697 136.496 45.4647 134.548 45.4647C132.671 45.4647 131.176 44.7969 130.062 43.4611C128.947 42.1254 128.39 40.4393 128.39 38.4071C128.39 36.2805 128.963 34.5386 130.114 33.1843C131.262 31.8285 132.811 31.1506 134.759 31.1506C136.636 31.1506 138.147 31.8185 139.287 33.1557C140.378 34.4528 140.922 36.1275 140.922 38.1797ZM137.972 38.2784C137.972 37.0127 137.72 35.9272 137.21 35.022C136.614 33.9265 135.762 33.3802 134.658 33.3802C133.515 33.3802 132.647 33.9279 132.051 35.022C131.54 35.9287 131.288 37.0313 131.288 38.3356C131.288 39.6012 131.54 40.6867 132.051 41.5905C132.666 42.686 133.524 43.2323 134.632 43.2323C135.718 43.2323 136.57 42.6746 137.184 41.5619C137.708 40.6395 137.972 39.5426 137.972 38.2784Z" fill="white"/>
<path d="M150.162 34.1126C149.88 34.0568 149.58 34.0282 149.266 34.0282C148.266 34.0282 147.492 34.433 146.948 35.2438C146.475 35.9589 146.238 36.8627 146.238 37.9539V45.1545H143.396L143.423 35.753C143.423 34.1712 143.387 32.7311 143.316 31.4326H145.792L145.896 34.0583H145.975C146.275 33.1559 146.748 32.4294 147.396 31.8845C148.03 31.394 148.714 31.1494 149.451 31.1494C149.714 31.1494 149.951 31.1694 150.162 31.2052V34.1126Z" fill="white"/>
<path d="M162.875 37.6435C162.875 38.1898 162.842 38.6503 162.771 39.0264H154.243C154.276 40.3821 154.688 41.419 155.48 42.134C156.199 42.7733 157.128 43.0936 158.27 43.0936C159.532 43.0936 160.684 42.8777 161.72 42.4444L162.166 44.5609C160.955 45.1273 159.526 45.409 157.876 45.409C155.892 45.409 154.335 44.7826 153.202 43.5312C152.071 42.2799 151.504 40.5995 151.504 38.4915C151.504 36.4221 152.031 34.6988 153.086 33.3245C154.19 31.8572 155.682 31.1235 157.559 31.1235C159.403 31.1235 160.799 31.8572 161.747 33.3245C162.498 34.49 162.875 35.9316 162.875 37.6435ZM160.164 36.8526C160.183 35.9488 159.998 35.1679 159.612 34.5086C159.12 33.6606 158.364 33.2373 157.347 33.2373C156.418 33.2373 155.662 33.6506 155.084 34.48C154.611 35.1393 154.33 35.9302 154.243 36.8512H160.164V36.8526Z" fill="white"/>
<path d="M65.4002 14.4141C65.4002 16.0974 64.9295 17.3645 63.9895 18.2154C63.1189 19.0005 61.8815 19.3938 60.2789 19.3938C59.4842 19.3938 58.8042 19.3566 58.2349 19.2822V10.0851C58.9775 9.95641 59.7775 9.89062 60.6415 9.89062C62.1682 9.89062 63.3188 10.2467 64.0948 10.9589C64.9642 11.7641 65.4002 12.9153 65.4002 14.4141ZM63.9268 14.4556C63.9268 13.3644 63.6575 12.5278 63.1189 11.9443C62.5802 11.3622 61.7935 11.0705 60.7575 11.0705C60.3175 11.0705 59.9429 11.1019 59.6322 11.1677V18.1596C59.8042 18.1882 60.1189 18.2011 60.5762 18.2011C61.6455 18.2011 62.4709 17.8822 63.0522 17.2443C63.6335 16.6065 63.9268 15.6769 63.9268 14.4556Z" fill="white"/>
<path d="M73.2122 15.8844C73.2122 16.9213 72.9362 17.7708 72.3842 18.4372C71.8055 19.1223 71.0388 19.4641 70.0815 19.4641C69.1588 19.4641 68.4242 19.1366 67.8762 18.4787C67.3295 17.8223 67.0562 16.9942 67.0562 15.996C67.0562 14.952 67.3375 14.0954 67.9028 13.4304C68.4682 12.7653 69.2282 12.4321 70.1855 12.4321C71.1082 12.4321 71.8495 12.7596 72.4108 13.4161C72.9442 14.0539 73.2122 14.8776 73.2122 15.8844ZM71.7628 15.9331C71.7628 15.311 71.6375 14.7775 71.3882 14.3328C71.0948 13.795 70.6775 13.5262 70.1348 13.5262C69.5735 13.5262 69.1468 13.795 68.8535 14.3328C68.6028 14.7775 68.4788 15.3196 68.4788 15.9602C68.4788 16.5823 68.6042 17.1158 68.8535 17.5606C69.1562 18.0983 69.5775 18.3671 70.1215 18.3671C70.6548 18.3671 71.0735 18.094 71.3748 17.5463C71.6335 17.0929 71.7628 16.5552 71.7628 15.9331Z" fill="white"/>
<path d="M83.6867 12.5693L81.72 19.3109H80.4401L79.6254 16.3834C79.4187 15.6526 79.2507 14.9261 79.1201 14.2054H79.0947C78.9734 14.9462 78.8054 15.6712 78.5894 16.3834L77.7241 19.3109H76.4294L74.5801 12.5693H76.0161L76.7267 15.7742C76.8987 16.5322 77.0401 17.2544 77.1534 17.938H77.1787C77.2827 17.3745 77.4547 16.6566 77.6974 15.7885L78.5894 12.5708H79.7281L80.5827 15.7199C80.7894 16.4878 80.9574 17.2272 81.0867 17.9394H81.1254C81.2201 17.2458 81.3627 16.5064 81.5521 15.7199L82.3147 12.5708H83.6867V12.5693Z" fill="white"/>
<path d="M90.9307 19.3109H89.5334V15.4496C89.5334 14.2597 89.1121 13.6648 88.2667 13.6648C87.8521 13.6648 87.5174 13.8278 87.2574 14.1553C87.0001 14.4828 86.8694 14.869 86.8694 15.3109V19.3095H85.472V14.4957C85.472 13.9036 85.4547 13.2615 85.4214 12.5665H86.6494L86.7147 13.6205H86.7534C86.9161 13.293 87.1587 13.0227 87.4774 12.8067C87.8561 12.555 88.2801 12.4277 88.7441 12.4277C89.3307 12.4277 89.8187 12.6308 90.2067 13.0384C90.6894 13.5375 90.9307 14.2826 90.9307 15.2722V19.3109Z" fill="white"/>
<path d="M94.7842 19.3109H93.3882V9.47607H94.7842V19.3109Z" fill="white"/>
<path d="M103.011 15.8844C103.011 16.9213 102.735 17.7708 102.183 18.4372C101.604 19.1223 100.836 19.4641 99.8803 19.4641C98.9563 19.4641 98.2216 19.1366 97.675 18.4787C97.1283 17.8223 96.855 16.9942 96.855 15.996C96.855 14.952 97.1363 14.0954 97.7017 13.4304C98.267 12.7653 99.027 12.4321 99.983 12.4321C100.907 12.4321 101.647 12.7596 102.21 13.4161C102.743 14.0539 103.011 14.8776 103.011 15.8844ZM101.56 15.9331C101.56 15.311 101.435 14.7775 101.186 14.3328C100.894 13.795 100.475 13.5262 99.9336 13.5262C99.371 13.5262 98.9443 13.795 98.6523 14.3328C98.4016 14.7775 98.2776 15.3196 98.2776 15.9602C98.2776 16.5823 98.403 17.1158 98.6523 17.5606C98.955 18.0983 99.3763 18.3671 99.9203 18.3671C100.454 18.3671 100.871 18.094 101.172 17.5463C101.432 17.0929 101.56 16.5552 101.56 15.9331Z" fill="white"/>
<path d="M109.773 19.311H108.519L108.415 18.5345H108.376C107.947 19.1537 107.335 19.4641 106.54 19.4641C105.947 19.4641 105.467 19.2595 105.105 18.8534C104.777 18.4844 104.613 18.0253 104.613 17.4805C104.613 16.6567 104.933 16.0289 105.577 15.5941C106.22 15.1594 107.124 14.9463 108.288 14.9563V14.8304C108.288 13.9423 107.853 13.499 106.983 13.499C106.363 13.499 105.816 13.6663 105.344 13.9981L105.06 13.0142C105.644 12.6266 106.365 12.4321 107.216 12.4321C108.859 12.4321 109.683 13.3617 109.683 15.2209V17.7036C109.683 18.3772 109.713 18.9135 109.773 19.311ZM108.323 16.9942V15.9545C106.781 15.9259 106.011 16.3793 106.011 17.3131C106.011 17.665 106.099 17.9281 106.279 18.104C106.459 18.2799 106.688 18.3671 106.961 18.3671C107.268 18.3671 107.555 18.2627 107.816 18.0554C108.079 17.8466 108.24 17.582 108.3 17.2574C108.315 17.1844 108.323 17.0958 108.323 16.9942Z" fill="white"/>
<path d="M117.713 19.3109H116.473L116.408 18.2283H116.369C115.973 19.0521 115.299 19.4639 114.351 19.4639C113.593 19.4639 112.963 19.145 112.463 18.5072C111.963 17.8694 111.713 17.0413 111.713 16.0245C111.713 14.9334 111.984 14.0495 112.528 13.3745C113.055 12.7453 113.7 12.4307 114.468 12.4307C115.312 12.4307 115.903 12.7353 116.239 13.3459H116.265V9.47607H117.664V17.4947C117.664 18.1511 117.68 18.756 117.713 19.3109ZM116.265 16.4679V15.3438C116.265 15.1493 116.252 14.992 116.227 14.8719C116.148 14.5115 115.979 14.2083 115.721 13.9637C115.461 13.7192 115.148 13.5962 114.787 13.5962C114.265 13.5962 113.857 13.8179 113.557 14.2626C113.26 14.7074 113.109 15.2752 113.109 15.9688C113.109 16.6352 113.252 17.1758 113.539 17.5919C113.841 18.0353 114.249 18.2569 114.76 18.2569C115.219 18.2569 115.585 18.0724 115.864 17.702C116.133 17.3602 116.265 16.9484 116.265 16.4679Z" fill="white"/>
<path d="M129.664 15.8844C129.664 16.9213 129.388 17.7708 128.836 18.4372C128.258 19.1223 127.492 19.4641 126.534 19.4641C125.612 19.4641 124.878 19.1366 124.328 18.4787C123.782 17.8223 123.508 16.9942 123.508 15.996C123.508 14.952 123.79 14.0954 124.355 13.4304C124.92 12.7653 125.68 12.4321 126.639 12.4321C127.56 12.4321 128.303 12.7596 128.863 13.4161C129.396 14.0539 129.664 14.8776 129.664 15.8844ZM128.216 15.9331C128.216 15.311 128.091 14.7775 127.842 14.3328C127.547 13.795 127.131 13.5262 126.587 13.5262C126.027 13.5262 125.6 13.795 125.306 14.3328C125.055 14.7775 124.931 15.3196 124.931 15.9602C124.931 16.5823 125.056 17.1158 125.306 17.5606C125.608 18.0983 126.03 18.3671 126.574 18.3671C127.107 18.3671 127.527 18.094 127.828 17.5463C128.086 17.0929 128.216 16.5552 128.216 15.9331Z" fill="white"/>
<path d="M137.177 19.3109H135.781V15.4496C135.781 14.2597 135.36 13.6648 134.513 13.6648C134.099 13.6648 133.764 13.8278 133.505 14.1553C133.247 14.4828 133.117 14.869 133.117 15.3109V19.3095H131.719V14.4957C131.719 13.9036 131.703 13.2615 131.669 12.5665H132.896L132.961 13.6205H133C133.164 13.293 133.407 13.0227 133.724 12.8067C134.104 12.555 134.527 12.4277 134.992 12.4277C135.577 12.4277 136.065 12.6308 136.453 13.0384C136.937 13.5375 137.177 14.2826 137.177 15.2722V19.3109Z" fill="white"/>
<path d="M146.581 13.6919H145.043V16.9669C145.043 17.7992 145.316 18.2153 145.857 18.2153C146.108 18.2153 146.316 18.1925 146.48 18.1453L146.516 19.2822C146.24 19.3938 145.877 19.4495 145.431 19.4495C144.879 19.4495 144.449 19.2693 144.139 18.9089C143.827 18.5486 143.672 17.9422 143.672 17.0913V13.6919H142.753V12.5693H143.672V11.3337L145.041 10.8904V12.5679H146.58V13.6919H146.581Z" fill="white"/>
<path d="M153.979 19.3109H152.58V15.4782C152.58 14.2698 152.159 13.6649 151.315 13.6649C150.667 13.6649 150.224 14.0152 149.981 14.716C149.94 14.8633 149.916 15.0435 149.916 15.2551V19.3095H148.52V9.47607H149.916V13.539H149.943C150.383 12.7996 151.013 12.4307 151.831 12.4307C152.409 12.4307 152.888 12.6337 153.268 13.0413C153.741 13.549 153.979 14.3041 153.979 15.3023V19.3109Z" fill="white"/>
<path d="M161.609 15.6212C161.609 15.8901 161.591 16.116 161.557 16.3005H157.367C157.385 16.967 157.585 17.4746 157.973 17.8265C158.328 18.1411 158.785 18.2984 159.345 18.2984C159.965 18.2984 160.531 18.1926 161.04 17.9795L161.259 19.0206C160.663 19.298 159.961 19.4368 159.149 19.4368C158.176 19.4368 157.409 19.1293 156.855 18.5143C156.297 17.8994 156.021 17.0742 156.021 16.0388C156.021 15.022 156.279 14.1754 156.797 13.5004C157.339 12.7796 158.071 12.4192 158.995 12.4192C159.899 12.4192 160.585 12.7796 161.049 13.5004C161.424 14.0724 161.609 14.7803 161.609 15.6212ZM160.276 15.2337C160.287 14.7889 160.195 14.4056 160.005 14.0824C159.763 13.6663 159.393 13.4575 158.893 13.4575C158.437 13.4575 158.065 13.6605 157.781 14.0681C157.549 14.3927 157.412 14.7803 157.367 15.2337H160.276Z" fill="white"/>
</svg>
