<svg width="100" height="102" viewBox="0 0 100 102" fill="none" xmlns="http://www.w3.org/2000/svg">
<path d="M98.4043 58.4116C97.523 58.4116 96.8085 59.14 96.8085 60.0384V64.9188H3.19149V60.0384C3.19149 59.14 2.47702 58.4116 1.59574 58.4116C0.714468 58.4116 0 59.14 0 60.0384V99.7616C0 100.66 0.714468 101.388 1.59574 101.388H98.4043C99.2855 101.388 100 100.66 100 99.7616V60.0384C100 59.14 99.2855 58.4116 98.4043 58.4116ZM96.8085 71.4259H14.3617C13.4804 71.4259 12.766 72.1543 12.766 73.0527C12.766 73.9511 13.4804 74.6795 14.3617 74.6795H96.8085V98.1349H3.19149V74.6795H7.97872C8.86 74.6795 9.57447 73.9511 9.57447 73.0527C9.57447 72.1543 8.86 71.4259 7.97872 71.4259H3.19149V68.1723H96.8085V71.4259Z" fill="#98C673"/>
<path d="M40.2722 61.2988C40.5686 61.5455 40.9254 61.6654 41.2803 61.6654C41.7431 61.6654 42.202 61.4613 42.5173 61.0674L60.2097 38.9726C60.7669 38.2768 60.6654 37.2519 59.9827 36.6836C59.3001 36.1156 58.2948 36.219 57.7373 36.9151L40.045 59.0099C39.488 59.7057 39.5895 60.7306 40.2722 61.2988Z" fill="#98C673"/>
<path d="M48.1306 59.0099C47.5734 59.7057 47.6749 60.7305 48.3576 61.2988C48.654 61.5455 49.0108 61.6654 49.3657 61.6654C49.8285 61.6654 50.2874 61.4613 50.6027 61.0674C50.6027 61.0674 68.0468 39.2822 68.2919 38.9764C68.2927 38.9751 68.2938 38.974 68.2949 38.9727C68.3932 38.8499 68.4987 38.7311 68.6081 38.6194C70.3857 36.8074 73.2783 36.8074 75.0559 38.6194L79.4557 43.1047C81.2334 44.917 81.2334 47.8658 79.4557 49.6782C79.3461 49.7899 79.2296 49.8973 79.1096 49.9973L68.5576 58.7784C67.8749 59.3467 67.7732 60.3714 68.3306 61.0674C68.6462 61.4613 69.1051 61.6654 69.5676 61.6654C69.9223 61.6654 70.2795 61.5455 70.5757 61.2988L81.1278 52.5175C81.3308 52.3485 81.5274 52.1672 81.7123 51.9787C84.3366 49.3032 84.6806 45.1714 82.747 42.1126C87.0685 38.1975 92.5744 36.0562 98.4042 36.0562C99.2855 36.0562 100 35.3279 100 34.4294C100 33.531 99.2855 32.8027 98.4042 32.8027C91.9464 32.8027 85.8376 35.1166 80.9876 39.3581L94.4432 25.6411C95.0664 25.0058 95.0664 23.976 94.4432 23.3407C93.82 22.7053 92.8095 22.7053 92.1866 23.3407L78.7321 37.0568C82.8923 32.1125 85.1617 25.8856 85.1617 19.3026C85.1617 18.4041 84.4472 17.6758 83.5659 17.6758C82.6847 17.6758 81.9702 18.4041 81.9702 19.3026C81.9702 25.2455 79.8698 30.8588 76.0293 35.2643C73.0289 33.2929 68.9757 33.6436 66.3515 36.3189C66.1666 36.5074 65.9887 36.7078 65.823 36.9147L65.827 36.918C65.7557 36.9991 65.6891 37.0822 65.6242 37.1631L48.1306 59.0099Z" fill="#98C673"/>
<path d="M7.97389 61.6653C8.85517 61.6653 9.56963 60.9369 9.56963 60.0385V20.617H32.2228V60.0385C32.2228 60.9369 32.9373 61.6653 33.8186 61.6653C34.6999 61.6653 35.4143 60.9369 35.4143 60.0385V19.511L41.4169 10.9346L45.9165 17.3632H41.6597C40.7784 17.3632 40.0639 18.0916 40.0639 18.99C40.0639 19.8884 40.7784 20.6168 41.6597 20.6168H47.4194V40.0902C47.4194 40.9886 48.1339 41.717 49.0152 41.717C49.8965 41.717 50.6109 40.9886 50.6109 40.0902V18.9902C50.6109 18.6514 50.5071 18.3211 50.3141 18.0454L43.0126 7.61313V1.62678C43.0126 0.728365 42.2982 0 41.4169 0H15.5722C14.6909 0 13.9764 0.728365 13.9764 1.62678V7.61291L6.67474 18.0454C6.48176 18.3211 6.37793 18.6514 6.37793 18.9902V60.0385C6.37814 60.9369 7.0924 61.6653 7.97389 61.6653ZM17.1679 3.25357H39.8211V6.50713H17.1679V3.25357ZM16.3939 9.7607H38.3179L32.9967 17.3634H11.0726L16.3939 9.7607Z" fill="#98C673"/>
<path d="M92.0214 61.6654C92.9027 61.6654 93.6172 60.937 93.6172 60.0386V57.3356C93.6172 53.9528 91.5199 50.8867 88.3984 49.7058C87.5719 49.3935 86.6538 49.8228 86.3472 50.665C86.0406 51.5074 86.4619 52.4436 87.288 52.7561C89.1646 53.4661 90.4257 55.3063 90.4257 57.3356V60.0386C90.4257 60.937 91.1401 61.6654 92.0214 61.6654Z" fill="#98C673"/>
</svg>
