<svg width="99" height="99" viewBox="0 0 99 99" fill="none" xmlns="http://www.w3.org/2000/svg">
<path d="M97.4202 89.5212H1.57979C0.707323 89.5212 0 90.2286 0 91.101C0 91.9735 0.707323 92.6808 1.57979 92.6808H97.4202C98.2929 92.6808 99 91.9735 99 91.101C99 90.2286 98.2929 89.5212 97.4202 89.5212Z" fill="#98C673"/>
<path d="M97.4202 95.8405H1.57979C0.707323 95.8405 0 96.5478 0 97.4202C0 98.2927 0.707323 99 1.57979 99H97.4202C98.2929 99 99 98.2927 99 97.4202C99 96.5478 98.2929 95.8405 97.4202 95.8405Z" fill="#98C673"/>
<path d="M97.4202 6.31915H92.1543V4.73936C92.1543 2.12597 90.0281 0 87.4149 0C84.8017 0 82.6755 2.12597 82.6755 4.73936V6.31915H66.8777V4.73936C66.8777 2.12597 64.7515 0 62.1383 0C59.5251 0 57.3989 2.12597 57.3989 4.73936V6.31915H41.6011V4.73936C41.6011 2.12597 39.4751 0 36.8617 0C34.2483 0 32.1223 2.12597 32.1223 4.73936V6.31915H16.3245V4.73936C16.3245 2.12597 14.1985 0 11.5851 0C8.97172 0 6.84574 2.12597 6.84574 4.73936V6.31915H1.57979C0.707323 6.31915 0 7.02647 0 7.89894V84.7819C0 85.6544 0.707323 86.3617 1.57979 86.3617H97.4202C98.2929 86.3617 99 85.6544 99 84.7819V7.89894C99 7.02647 98.2929 6.31915 97.4202 6.31915ZM85.8351 4.73936C85.8351 3.86816 86.5437 3.15957 87.4149 3.15957C88.2861 3.15957 88.9947 3.86816 88.9947 4.73936V11.0585C88.9947 11.9297 88.2861 12.6383 87.4149 12.6383C86.5437 12.6383 85.8351 11.9297 85.8351 11.0585V4.73936ZM60.5585 4.73936C60.5585 3.86816 61.2671 3.15957 62.1383 3.15957C63.0095 3.15957 63.7181 3.86816 63.7181 4.73936V11.0585C63.7181 11.9297 63.0095 12.6383 62.1383 12.6383C61.2671 12.6383 60.5585 11.9297 60.5585 11.0585V4.73936ZM35.2819 4.73936C35.2819 3.86816 35.9905 3.15957 36.8617 3.15957C37.7329 3.15957 38.4415 3.86816 38.4415 4.73936V11.0585C38.4415 11.9297 37.7329 12.6383 36.8617 12.6383C35.9905 12.6383 35.2819 11.9297 35.2819 11.0585V4.73936ZM10.0053 4.73936C10.0053 3.86816 10.7139 3.15957 11.5851 3.15957C12.4563 3.15957 13.1649 3.86816 13.1649 4.73936V11.0585C13.1649 11.9297 12.4563 12.6383 11.5851 12.6383C10.7139 12.6383 10.0053 11.9297 10.0053 11.0585V4.73936ZM6.84574 9.47872V11.0585C6.84574 13.6719 8.97172 15.7979 11.5851 15.7979C14.1985 15.7979 16.3245 13.6719 16.3245 11.0585V9.47872H32.1223V11.0585C32.1223 13.6719 34.2483 15.7979 36.8617 15.7979C39.4751 15.7979 41.6011 13.6719 41.6011 11.0585V9.47872H57.3989V11.0585C57.3989 13.6719 59.5251 15.7979 62.1383 15.7979C64.7515 15.7979 66.8777 13.6719 66.8777 11.0585V9.47872H82.6755V11.0585C82.6755 13.6719 84.8017 15.7979 87.4149 15.7979C90.0281 15.7979 92.1543 13.6719 92.1543 11.0585V9.47872H95.8404V25.7611H3.15957V9.47872H6.84574ZM3.15957 83.2021V28.9206H95.8404V83.2021H3.15957Z" fill="#98C673"/>
<path d="M86.7832 47.7727H80.4641C79.5914 47.7727 78.8843 48.48 78.8843 49.3525C78.8843 50.225 79.5914 50.9323 80.4641 50.9323H86.7832C87.6559 50.9323 88.363 50.225 88.363 49.3525C88.363 48.48 87.6559 47.7727 86.7832 47.7727Z" fill="#98C673"/>
<path d="M69.7212 47.7727H63.4021C62.5294 47.7727 61.8223 48.48 61.8223 49.3525C61.8223 50.225 62.5294 50.9323 63.4021 50.9323H69.7212C70.5939 50.9323 71.301 50.225 71.301 49.3525C71.301 48.48 70.5939 47.7727 69.7212 47.7727Z" fill="#98C673"/>
<path d="M52.6597 47.7727H46.3405C45.4681 47.7727 44.7607 48.48 44.7607 49.3525C44.7607 50.225 45.4681 50.9323 46.3405 50.9323H52.6597C53.5324 50.9323 54.2395 50.225 54.2395 49.3525C54.2395 48.48 53.5324 47.7727 52.6597 47.7727Z" fill="#98C673"/>
<path d="M35.5977 47.7727H29.2785C28.4061 47.7727 27.6987 48.48 27.6987 49.3525C27.6987 50.225 28.4061 50.9323 29.2785 50.9323H35.5977C36.4701 50.9323 37.1775 50.225 37.1775 49.3525C37.1775 48.48 36.4701 47.7727 35.5977 47.7727Z" fill="#98C673"/>
<path d="M18.5361 47.7727H12.217C11.3445 47.7727 10.6372 48.48 10.6372 49.3525C10.6372 50.225 11.3445 50.9323 12.217 50.9323H18.5361C19.4086 50.9323 20.1159 50.225 20.1159 49.3525C20.1159 48.48 19.4086 47.7727 18.5361 47.7727Z" fill="#98C673"/>
<path d="M69.7212 59.1472H63.4021C62.5294 59.1472 61.8223 59.8545 61.8223 60.727C61.8223 61.5995 62.5294 62.3068 63.4021 62.3068H69.7212C70.5939 62.3068 71.301 61.5995 71.301 60.727C71.301 59.8545 70.5939 59.1472 69.7212 59.1472Z" fill="#98C673"/>
<path d="M52.6597 59.1472H46.3405C45.4681 59.1472 44.7607 59.8545 44.7607 60.727C44.7607 61.5995 45.4681 62.3068 46.3405 62.3068H52.6597C53.5324 62.3068 54.2395 61.5995 54.2395 60.727C54.2395 59.8545 53.5324 59.1472 52.6597 59.1472Z" fill="#98C673"/>
<path d="M35.5977 59.1472H29.2785C28.4061 59.1472 27.6987 59.8545 27.6987 60.727C27.6987 61.5995 28.4061 62.3068 29.2785 62.3068H35.5977C36.4701 62.3068 37.1775 61.5995 37.1775 60.727C37.1775 59.8545 36.4701 59.1472 35.5977 59.1472Z" fill="#98C673"/>
<path d="M18.5361 59.1472H12.217C11.3445 59.1472 10.6372 59.8545 10.6372 60.727C10.6372 61.5995 11.3445 62.3068 12.217 62.3068H18.5361C19.4086 62.3068 20.1159 61.5995 20.1159 60.727C20.1159 59.8545 19.4086 59.1472 18.5361 59.1472Z" fill="#98C673"/>
<path d="M69.7212 70.5217H63.4021C62.5294 70.5217 61.8223 71.2291 61.8223 72.1015C61.8223 72.974 62.5294 73.6813 63.4021 73.6813H69.7212C70.5939 73.6813 71.301 72.974 71.301 72.1015C71.301 71.2291 70.5939 70.5217 69.7212 70.5217Z" fill="#98C673"/>
<path d="M86.7832 59.1472H80.4641C79.5914 59.1472 78.8843 59.8545 78.8843 60.727C78.8843 61.5995 79.5914 62.3068 80.4641 62.3068H86.7832C87.6559 62.3068 88.363 61.5995 88.363 60.727C88.363 59.8545 87.6559 59.1472 86.7832 59.1472Z" fill="#98C673"/>
<path d="M86.7832 70.5217H80.4641C79.5914 70.5217 78.8843 71.2291 78.8843 72.1015C78.8843 72.974 79.5914 73.6813 80.4641 73.6813H86.7832C87.6559 73.6813 88.363 72.974 88.363 72.1015C88.363 71.2291 87.6559 70.5217 86.7832 70.5217Z" fill="#98C673"/>
<path d="M52.6597 70.5217H46.3405C45.4681 70.5217 44.7607 71.2291 44.7607 72.1015C44.7607 72.974 45.4681 73.6813 46.3405 73.6813H52.6597C53.5324 73.6813 54.2395 72.974 54.2395 72.1015C54.2395 71.2291 53.5324 70.5217 52.6597 70.5217Z" fill="#98C673"/>
<path d="M35.5977 70.5217H29.2785C28.4061 70.5217 27.6987 71.2291 27.6987 72.1015C27.6987 72.974 28.4061 73.6813 29.2785 73.6813H35.5977C36.4701 73.6813 37.1775 72.974 37.1775 72.1015C37.1775 71.2291 36.4701 70.5217 35.5977 70.5217Z" fill="#98C673"/>
<path d="M18.5361 70.5217H12.217C11.3445 70.5217 10.6372 71.2291 10.6372 72.1015C10.6372 72.974 11.3445 73.6813 12.217 73.6813H18.5361C19.4086 73.6813 20.1159 72.974 20.1159 72.1015C20.1159 71.2291 19.4086 70.5217 18.5361 70.5217Z" fill="#98C673"/>
<path d="M86.7832 36.3983H80.4641C79.5914 36.3983 78.8843 37.1056 78.8843 37.9781C78.8843 38.8506 79.5914 39.5579 80.4641 39.5579H86.7832C87.6559 39.5579 88.363 38.8506 88.363 37.9781C88.363 37.1056 87.6559 36.3983 86.7832 36.3983Z" fill="#98C673"/>
<path d="M69.7212 36.3983H63.4021C62.5294 36.3983 61.8223 37.1056 61.8223 37.9781C61.8223 38.8506 62.5294 39.5579 63.4021 39.5579H69.7212C70.5939 39.5579 71.301 38.8506 71.301 37.9781C71.301 37.1056 70.5939 36.3983 69.7212 36.3983Z" fill="#98C673"/>
<path d="M52.6597 36.3983H46.3405C45.4681 36.3983 44.7607 37.1056 44.7607 37.9781C44.7607 38.8506 45.4681 39.5579 46.3405 39.5579H52.6597C53.5324 39.5579 54.2395 38.8506 54.2395 37.9781C54.2395 37.1056 53.5324 36.3983 52.6597 36.3983Z" fill="#98C673"/>
<path d="M35.5977 36.3983H29.2785C28.4061 36.3983 27.6987 37.1056 27.6987 37.9781C27.6987 38.8506 28.4061 39.5579 29.2785 39.5579H35.5977C36.4701 39.5579 37.1775 38.8506 37.1775 37.9781C37.1775 37.1056 36.4701 36.3983 35.5977 36.3983Z" fill="#98C673"/>
<path d="M18.5361 36.3983H12.217C11.3445 36.3983 10.6372 37.1056 10.6372 37.9781C10.6372 38.8506 11.3445 39.5579 12.217 39.5579H18.5361C19.4086 39.5579 20.1159 38.8506 20.1159 37.9781C20.1159 37.1056 19.4086 36.3983 18.5361 36.3983Z" fill="#98C673"/>
</svg>
