<svg width="95" height="99" viewBox="0 0 95 99" fill="none" xmlns="http://www.w3.org/2000/svg">
<path d="M17.3687 10.6663L21.4826 10.6663L21.4826 16.9371L27.6338 16.9371L27.6338 21.1311L21.4826 21.1311L21.4826 27.4221L17.3687 27.4221L17.3687 21.1311L11.1978 21.1311L11.1978 16.9371L17.3687 16.9371L17.3687 10.6663Z" fill="#98C673"/>
<path d="M76.2103 5.88755C76.4081 4.83905 77.2388 4.21399 78.2673 4.21399L95 4.21399L95 8.42813L79.9287 8.42813L66.321 64.5427C66.1232 65.5912 65.2925 66.2163 64.264 66.2163L11.2177 66.2163L11.2177 62.0022L62.8004 62.0022L76.2103 5.88755Z" fill="#98C673"/>
<path d="M17.1908 72.729L64.2441 72.729L64.2441 76.9434L17.1908 76.9434L17.1908 72.729Z" fill="#98C673"/>
<path d="M19.663 82.4076C23.9945 82.4076 27.7129 86.1983 27.7129 90.6141C27.7129 95.0298 24.2121 98.8206 19.663 98.8206C15.1139 98.8206 11.613 95.0298 11.613 90.6141C11.613 86.1983 15.3314 82.4076 19.663 82.4076ZM19.663 94.5863C21.72 94.5863 23.5791 92.6909 23.5791 90.5939C23.5791 88.4969 21.9375 86.6016 19.663 86.6016C17.3884 86.6016 15.7468 88.4969 15.7468 90.5939C15.7468 92.7111 17.606 94.5863 19.663 94.5863Z" fill="#98C673"/>
<path d="M58.8847 82.4076C63.2162 82.4076 66.9346 86.1983 66.9346 90.6141C66.9346 95.0298 63.4338 98.8206 58.8847 98.8206C54.5532 98.8206 50.8348 95.0298 50.8348 90.6141C50.8348 86.1983 54.5532 82.4076 58.8847 82.4076ZM58.8847 94.5863C60.9417 94.5863 62.8009 92.6909 62.8009 90.5939C62.8009 88.4969 61.1592 86.6016 58.8847 86.6016C56.8277 86.6016 54.9686 88.4969 54.9686 90.5939C54.9686 92.7111 56.8277 94.5863 58.8847 94.5863Z" fill="#98C673"/>
<path d="M0.062567 18.9132C0.0625679 8.4081 8.31026 -5.24907e-06 18.6347 -4.32892e-06C28.9591 -3.40877e-06 37.2068 8.40811 37.2068 18.9132C37.2068 19.0543 37.2068 19.1955 37.2068 19.3366L65.0749 19.3366C67.0528 19.3366 67.389 21.1715 67.1319 22.0788L58.2513 54.0377C58.0337 54.9047 57.0052 55.5096 56.1943 55.5096L11.1979 55.5096C10.1694 55.5096 9.33874 54.8846 8.92338 53.8361C8.92338 53.8361 0.65592 23.8129 0.517469 23.208C0.220793 21.8167 0.0625669 20.3851 0.062567 18.9132ZM62.385 23.5508L36.653 23.5508C36.0794 25.93 35.051 28.148 33.6862 30.0635L60.7434 30.0635L62.385 23.5508ZM12.8593 51.2955L54.7505 51.2955L56.3921 44.7827L10.9804 44.7827L12.8593 51.2955ZM9.75409 40.5686L57.6184 40.5686L59.3984 34.2575L29.5525 34.2575C26.4868 36.5158 22.7289 37.8264 18.6347 37.8264C14.679 37.8264 11.0397 36.5964 8.05313 34.4793L9.75409 40.5686ZM18.6347 33.6324C26.6846 33.6324 33.0731 27.1197 33.0731 18.9132C33.0731 10.7067 26.6846 4.19397 18.6347 4.19397C10.5848 4.19397 4.1963 10.7067 4.1963 18.9132C4.1963 27.1197 10.5848 33.6324 18.6347 33.6324Z" fill="#98C673"/>
</svg>
