<svg width="180" height="58" viewBox="0 0 180 58" fill="none" xmlns="http://www.w3.org/2000/svg">
<path d="M173.095 57.2046H6.6575C2.99754 57.2046 0 53.985 0 50.054V7.15052C0 3.21949 2.99754 -6.04382e-05 6.6575 -6.04382e-05H173.095C176.755 -6.04382e-05 179.753 3.21949 179.753 7.15052V50.054C179.753 53.985 176.755 57.2046 173.095 57.2046Z" fill="black"/>
<path d="M173.095 1.14582C176.177 1.14582 178.686 3.8398 178.686 7.15052V50.054C178.686 53.3647 176.177 56.0587 173.095 56.0587H6.6575C3.57508 56.0587 1.06686 53.3647 1.06686 50.054V7.15052C1.06686 3.8398 3.57508 1.14582 6.6575 1.14582H173.095ZM173.095 -6.04382e-05H6.6575C2.99754 -6.04382e-05 0 3.21949 0 7.15052V50.054C0 53.985 2.99754 57.2046 6.6575 57.2046H173.095C176.755 57.2046 179.753 53.985 179.753 50.054V7.15052C179.753 3.21949 176.755 -6.04382e-05 173.095 -6.04382e-05Z" fill="#A6A6A6"/>
<path d="M63.1366 14.6496C63.1366 15.8438 62.8037 16.8002 62.1479 17.5135C61.394 18.359 60.412 18.7845 59.2087 18.7845C58.0586 18.7845 57.0766 18.3519 56.271 17.4992C55.4638 16.6339 55.061 15.5721 55.061 14.3011C55.061 13.03 55.4638 11.9682 56.271 11.1101C57.0766 10.2502 58.0586 9.81763 59.2087 9.81763C59.7812 9.81763 60.3271 9.94455 60.8481 10.1805C61.3673 10.4183 61.7901 10.7401 62.0963 11.1369L61.4006 11.8913C60.8664 11.2138 60.139 10.8795 59.2087 10.8795C58.3698 10.8795 57.6425 11.1941 57.025 11.8287C56.4142 12.4651 56.1079 13.2892 56.1079 14.3011C56.1079 15.3129 56.4142 16.1441 57.025 16.7805C57.6425 17.408 58.3698 17.7298 59.2087 17.7298C60.0991 17.7298 60.8481 17.408 61.4389 16.7734C61.8284 16.3533 62.0497 15.7741 62.108 15.034H59.2087V14.0007H63.0766C63.1233 14.2242 63.1366 14.4405 63.1366 14.6496Z" fill="white" stroke="white" stroke-width="0.16" stroke-miterlimit="10"/>
<path d="M69.2727 11.0673H65.6394V13.7845H68.9149V14.8178H65.6394V17.535H69.2727V18.5879H64.6108V10.0144H69.2727V11.0673Z" fill="white" stroke="white" stroke-width="0.16" stroke-miterlimit="10"/>
<path d="M73.6039 18.5879H72.5753V11.0673H70.3467V10.0144H75.8341V11.0673H73.6039V18.5879Z" fill="white" stroke="white" stroke-width="0.16" stroke-miterlimit="10"/>
<path d="M79.8052 18.5879V10.0144H80.8321V18.5879H79.8052Z" fill="white" stroke="white" stroke-width="0.16" stroke-miterlimit="10"/>
<path d="M85.3841 18.5879H84.3639V11.0673H82.127V10.0144H87.621V11.0673H85.3841V18.5879Z" fill="white" stroke="white" stroke-width="0.16" stroke-miterlimit="10"/>
<path d="M98.0099 17.4849C97.2227 18.3519 96.2474 18.7845 95.084 18.7845C93.9139 18.7845 92.9386 18.3519 92.1513 17.4849C91.3657 16.6196 90.9746 15.5578 90.9746 14.3011C90.9746 13.0443 91.3657 11.9825 92.1513 11.1172C92.9386 10.2502 93.9139 9.81763 95.084 9.81763C96.2407 9.81763 97.216 10.2502 98.0033 11.1244C98.7955 11.9968 99.1866 13.0515 99.1866 14.3011C99.1866 15.5578 98.7955 16.6196 98.0099 17.4849ZM92.9119 16.7662C93.5045 17.408 94.2251 17.7298 95.084 17.7298C95.9361 17.7298 96.6634 17.408 97.2493 16.7662C97.8402 16.1245 98.1397 15.3004 98.1397 14.3011C98.1397 13.3018 97.8402 12.4777 97.2493 11.8359C96.6634 11.1941 95.9361 10.8723 95.084 10.8723C94.2251 10.8723 93.5045 11.1941 92.9119 11.8359C92.3211 12.4777 92.0215 13.3018 92.0215 14.3011C92.0215 15.3004 92.3211 16.1245 92.9119 16.7662Z" fill="white" stroke="white" stroke-width="0.16" stroke-miterlimit="10"/>
<path d="M100.63 18.5879V10.0144H101.878L105.759 16.6823H105.804L105.759 15.0341V10.0144H106.786V18.5879H105.715L101.65 11.5911H101.605L101.65 13.2464V18.5879H100.63Z" fill="white" stroke="white" stroke-width="0.16" stroke-miterlimit="10"/>
<path d="M90.7215 31.1087C87.5942 31.1087 85.0394 33.665 85.0394 37.1921C85.0394 40.6905 87.5942 43.2736 90.7215 43.2736C93.8555 43.2736 96.4104 40.6905 96.4104 37.1921C96.4104 33.665 93.8555 31.1087 90.7215 31.1087ZM90.7215 40.8782C89.0056 40.8782 87.5293 39.3569 87.5293 37.1921C87.5293 34.9986 89.0056 33.5042 90.7215 33.5042C92.4375 33.5042 93.9205 34.9986 93.9205 37.1921C93.9205 39.3569 92.4375 40.8782 90.7215 40.8782ZM78.3236 31.1087C75.1896 31.1087 72.6414 33.665 72.6414 37.1921C72.6414 40.6905 75.1896 43.2736 78.3236 43.2736C81.4559 43.2736 84.0058 40.6905 84.0058 37.1921C84.0058 33.665 81.4559 31.1087 78.3236 31.1087ZM78.3236 40.8782C76.606 40.8782 75.1247 39.3569 75.1247 37.1921C75.1247 34.9986 76.606 33.5042 78.3236 33.5042C80.0396 33.5042 81.5159 34.9986 81.5159 37.1921C81.5159 39.3569 80.0396 40.8782 78.3236 40.8782ZM63.5706 32.9732V35.5582H69.3177C69.1496 37.0026 68.7002 38.0644 68.0111 38.8045C67.1723 39.6983 65.8657 40.6905 63.5706 40.6905C60.0338 40.6905 57.2643 37.6247 57.2643 33.8259C57.2643 30.0272 60.0338 26.9614 63.5706 26.9614C65.4829 26.9614 66.8744 27.764 67.9013 28.8044L69.5973 26.9828C68.1609 25.5098 66.2502 24.3782 63.5706 24.3782C58.7206 24.3782 54.6445 28.6167 54.6445 33.8259C54.6445 39.0351 58.7206 43.2736 63.5706 43.2736C66.192 43.2736 68.1609 42.3512 69.7088 40.6208C71.2949 38.9171 71.7893 36.5217 71.7893 34.5875C71.7893 33.9868 71.7427 33.4344 71.6594 32.9732H63.5706ZM123.898 34.9772C123.43 33.6168 121.987 31.1087 119.048 31.1087C116.135 31.1087 113.71 33.5739 113.71 37.1921C113.71 40.5993 116.11 43.2736 119.327 43.2736C121.929 43.2736 123.43 41.57 124.047 40.5779L122.117 39.196C121.473 40.2078 120.595 40.8782 119.327 40.8782C118.067 40.8782 117.163 40.2579 116.584 39.0351L124.159 35.669L123.898 34.9772ZM116.175 37.0026C116.11 34.6572 117.871 33.4559 119.132 33.4559C120.121 33.4559 120.96 33.9868 121.24 34.7466L116.175 37.0026ZM110.018 42.9036H112.508V25.0272H110.018V42.9036ZM105.941 32.4637H105.857C105.298 31.7523 104.231 31.1087 102.88 31.1087C100.044 31.1087 97.4506 33.783 97.4506 37.2117C97.4506 40.6208 100.044 43.2736 102.88 43.2736C104.231 43.2736 105.298 42.6247 105.857 41.8918H105.941V42.7641C105.941 45.0899 104.784 46.3394 102.918 46.3394C101.397 46.3394 100.453 45.1596 100.064 44.1674L97.8983 45.1381C98.5225 46.7506 100.175 48.7349 102.918 48.7349C105.837 48.7349 108.301 46.89 108.301 42.4012V31.4788H105.941V32.4637ZM103.093 40.8782C101.377 40.8782 99.9405 39.3354 99.9405 37.2117C99.9405 35.0683 101.377 33.5042 103.093 33.5042C104.784 33.5042 106.117 35.0683 106.117 37.2117C106.117 39.3354 104.784 40.8782 103.093 40.8782ZM135.555 25.0272H129.6V42.9036H132.083V36.1302H135.555C138.313 36.1302 141.017 33.9868 141.017 30.5778C141.017 27.1705 138.306 25.0272 135.555 25.0272ZM135.62 33.6436H132.083V27.5138H135.62C137.474 27.5138 138.532 29.1673 138.532 30.5778C138.532 31.9614 137.474 33.6436 135.62 33.6436ZM150.97 31.0747C149.176 31.0747 147.31 31.9257 146.543 33.8116L148.747 34.8038C149.221 33.8116 150.093 33.4898 151.015 33.4898C152.303 33.4898 153.61 34.3211 153.63 35.7888V35.9765C153.181 35.6976 152.219 35.2846 151.035 35.2846C148.662 35.2846 146.243 36.6879 146.243 39.3068C146.243 41.7023 148.187 43.245 150.373 43.245C152.044 43.245 152.966 42.4352 153.545 41.4931H153.63V42.875H156.028V36.0176C156.028 32.8481 153.825 31.0747 150.97 31.0747ZM150.671 40.871C149.858 40.871 148.727 40.4384 148.727 39.3569C148.727 37.9733 150.138 37.4423 151.36 37.4423C152.453 37.4423 152.966 37.7015 153.63 38.043C153.435 39.6983 152.109 40.871 150.671 40.871ZM164.766 31.4662L161.912 39.2157H161.827L158.876 31.4662H156.198L160.632 42.2958L158.102 48.3219H160.697L167.529 31.4662H164.766ZM142.382 42.9036H144.872V25.0272H142.382V42.9036Z" fill="white"/>
<path d="M13.8943 10.7813C13.5032 11.2211 13.2769 11.9057 13.2769 12.7924V44.4195C13.2769 45.3061 13.5032 45.9908 13.8943 46.4306L13.9909 46.5271L30.4915 28.8115V28.3932L13.9909 10.6776L13.8943 10.7813Z" fill="url(#paint0_linear_47_504)"/>
<path d="M35.9853 34.7197L30.4912 28.8115V28.3932L35.992 22.485L36.1151 22.5619L42.6295 26.543C44.4886 27.6728 44.4886 29.5319 42.6295 30.6689L36.1151 34.6429L35.9853 34.7197Z" fill="url(#paint1_linear_47_504)"/>
<path d="M36.1151 34.6428L30.4912 28.6024L13.894 46.4305C14.5115 47.1277 15.5185 47.2117 16.6636 46.5145L36.1151 34.6428Z" fill="url(#paint2_linear_47_504)"/>
<path d="M36.1151 22.5618L16.6636 10.6901C15.5185 10 14.5115 10.0841 13.894 10.7812L30.4912 28.6023L36.1151 22.5618Z" fill="url(#paint3_linear_47_504)"/>
<defs>
<linearGradient id="paint0_linear_47_504" x1="29.0264" y1="44.7488" x2="5.08676" y2="22.46" gradientUnits="userSpaceOnUse">
<stop stop-color="#00A0FF"/>
<stop offset="0.0066" stop-color="#00A1FF"/>
<stop offset="0.2601" stop-color="#00BEFF"/>
<stop offset="0.5122" stop-color="#00D2FF"/>
<stop offset="0.7604" stop-color="#00DFFF"/>
<stop offset="1" stop-color="#00E3FF"/>
</linearGradient>
<linearGradient id="paint1_linear_47_504" x1="45.0504" y1="28.6004" x2="12.8322" y2="28.6004" gradientUnits="userSpaceOnUse">
<stop stop-color="#FFE000"/>
<stop offset="0.4087" stop-color="#FFBD00"/>
<stop offset="0.7754" stop-color="#FFA500"/>
<stop offset="1" stop-color="#FF9C00"/>
</linearGradient>
<linearGradient id="paint2_linear_47_504" x1="33.057" y1="25.3187" x2="0.592928" y2="-4.90687" gradientUnits="userSpaceOnUse">
<stop stop-color="#FF3A44"/>
<stop offset="1" stop-color="#C31162"/>
</linearGradient>
<linearGradient id="paint3_linear_47_504" x1="9.71619" y1="56.9527" x2="24.2129" y2="43.4558" gradientUnits="userSpaceOnUse">
<stop stop-color="#32A071"/>
<stop offset="0.0685" stop-color="#2DA771"/>
<stop offset="0.4762" stop-color="#15CF74"/>
<stop offset="0.8009" stop-color="#06E775"/>
<stop offset="1" stop-color="#00F076"/>
</linearGradient>
</defs>
</svg>
