<svg width="32" height="32" viewBox="0 0 32 32" fill="none" xmlns="http://www.w3.org/2000/svg">
<path d="M24.3808 8.38101H25.9046M6.85696 0.761963H25.1427C28.509 0.761963 31.2379 3.49089 31.2379 6.8572V25.1429C31.2379 28.5092 28.509 31.2382 25.1427 31.2382H6.85696C3.49065 31.2382 0.761719 28.5092 0.761719 25.1429V6.8572C0.761719 3.49089 3.49065 0.761963 6.85696 0.761963ZM15.9998 22.0953C12.6335 22.0953 9.90458 19.3664 9.90458 16.0001C9.90458 12.6338 12.6335 9.90482 15.9998 9.90482C19.3661 9.90482 22.0951 12.6338 22.0951 16.0001C22.0951 19.3664 19.3661 22.0953 15.9998 22.0953Z" stroke="#98C673"/>
</svg>
