<svg width="32" height="32" viewBox="0 0 32 32" fill="none" xmlns="http://www.w3.org/2000/svg">
<path d="M31.1909 3.04761L31.6898 3.01453C31.6765 2.81396 31.5444 2.64085 31.3544 2.57511C31.1645 2.50936 30.9536 2.56376 30.8192 2.7132L31.1909 3.04761ZM29.5174 9.48876C29.5174 9.21262 29.2935 8.98876 29.0174 8.98876C28.7412 8.98876 28.5174 9.21262 28.5174 9.48876H29.5174ZM15.9998 11.4286V11.9286H16.4998V11.4286H15.9998ZM2.93523 3.04761L3.40348 2.87228C3.33372 2.68595 3.16011 2.55871 2.96141 2.54829C2.76271 2.53788 2.57675 2.64626 2.48788 2.82428L2.93523 3.04761ZM11.4284 22.8571L11.7822 23.2104C11.9046 23.0879 11.9548 22.9107 11.915 22.7422C11.8752 22.5736 11.751 22.4377 11.5867 22.3829L11.4284 22.8571ZM0.761719 26.9932V26.4932C0.541451 26.4932 0.34713 26.6373 0.283224 26.8481C0.219319 27.0589 0.300885 27.2867 0.484072 27.409L0.761719 26.9932ZM27.3545 5.16653L26.9836 5.50187L27.1638 5.70112L27.4294 5.66089L27.3545 5.16653ZM30.692 3.08068C30.8062 4.80343 30.7075 5.92571 30.3933 6.81126C30.0829 7.68636 29.5442 8.38089 28.6714 9.21721L29.3633 9.93923C30.2866 9.0545 30.9505 8.23159 31.3358 7.14559C31.7173 6.07003 31.8073 4.78753 31.6898 3.01453L30.692 3.08068ZM29.5174 11.0748V9.57822H28.5174V11.0748H29.5174ZM29.5174 9.57822V9.48876H28.5174V9.57822H29.5174ZM15.4998 9.90475V11.4286H16.4998V9.90475H15.4998ZM22.5862 2.54761C18.634 2.54761 15.4998 5.99859 15.4998 9.90475H16.4998C16.4998 6.49858 19.2372 3.54761 22.5862 3.54761V2.54761ZM28.5174 11.0748C28.5174 20.8023 20.3589 29.2143 10.6665 29.2143V30.2143C20.9307 30.2143 29.5174 21.3348 29.5174 11.0748H28.5174ZM2.46698 3.22293C3.60548 6.26364 7.9117 11.9286 15.9998 11.9286V10.9286C8.43864 10.9286 4.43849 5.63656 3.40348 2.87228L2.46698 3.22293ZM2.48788 2.82428C0.267267 7.27236 -0.091342 11.5631 1.42253 15.186C2.93642 18.8088 6.28198 21.6661 11.2701 23.3314L11.5867 22.3829C6.79399 20.7828 3.71946 18.0891 2.34521 14.8004C0.970957 11.5117 1.25617 7.53033 3.38258 3.27094L2.48788 2.82428ZM11.0746 22.5039C9.69676 23.8838 5.81651 26.4932 0.761719 26.4932V27.4932C6.13978 27.4932 10.262 24.733 11.7822 23.2104L11.0746 22.5039ZM27.7254 4.83119C26.4579 3.42946 24.6246 2.54761 22.5862 2.54761V3.54761C24.3299 3.54761 25.8976 4.30077 26.9836 5.50187L27.7254 4.83119ZM27.4294 5.66089C28.945 5.43135 30.4384 4.63167 31.5626 3.38201L30.8192 2.7132C29.8437 3.79747 28.5574 4.47864 27.2796 4.67217L27.4294 5.66089ZM0.484072 27.409C3.85259 29.6582 7.0923 30.2143 10.6665 30.2143V29.2143C7.2163 29.2143 4.19138 28.682 1.03937 26.5774L0.484072 27.409Z" fill="#98C673"/>
</svg>
