<svg width="670" height="416" viewBox="0 0 670 416" fill="none" xmlns="http://www.w3.org/2000/svg">
<path d="M523.988 28.0091H146.012C145.628 28.0009 145.263 27.8427 144.995 27.5684C144.726 27.2941 144.576 26.9255 144.576 26.5417C144.576 26.1579 144.726 25.7893 144.995 25.515C145.263 25.2407 145.628 25.0825 146.012 25.0743H523.988C524.371 25.0825 524.737 25.2407 525.005 25.515C525.274 25.7893 525.424 26.1579 525.424 26.5417C525.424 26.9255 525.274 27.2941 525.005 27.5684C524.737 27.8427 524.371 28.0009 523.988 28.0091V28.0091Z" fill="#CACACA"/>
<path d="M171.133 17.5822C175.883 17.5822 179.734 13.6463 179.734 8.79112C179.734 3.93592 175.883 0 171.133 0C166.383 0 162.533 3.93592 162.533 8.79112C162.533 13.6463 166.383 17.5822 171.133 17.5822Z" fill="#3F3D56"/>
<path d="M200.845 17.5822C205.595 17.5822 209.445 13.6463 209.445 8.79112C209.445 3.93592 205.595 0 200.845 0C196.095 0 192.244 3.93592 192.244 8.79112C192.244 13.6463 196.095 17.5822 200.845 17.5822Z" fill="#3F3D56"/>
<path d="M230.556 17.5822C235.306 17.5822 239.156 13.6463 239.156 8.79112C239.156 3.93592 235.306 0 230.556 0C225.806 0 221.955 3.93592 221.955 8.79112C221.955 13.6463 225.806 17.5822 230.556 17.5822Z" fill="#3F3D56"/>
<path d="M506.099 2.17896H484.994C484.575 2.18728 484.177 2.35928 483.884 2.65803C483.591 2.95678 483.427 3.35844 483.427 3.77679C483.427 4.19514 483.591 4.59681 483.884 4.89555C484.177 5.1943 484.575 5.3663 484.994 5.37463H506.099C506.518 5.3663 506.916 5.1943 507.209 4.89555C507.502 4.59681 507.666 4.19514 507.666 3.77679C507.666 3.35844 507.502 2.95678 507.209 2.65803C506.916 2.35928 506.518 2.18728 506.099 2.17896V2.17896Z" fill="#3F3D56"/>
<path d="M506.099 8.17676H484.994C484.575 8.18509 484.177 8.35709 483.884 8.65583C483.591 8.95458 483.427 9.35625 483.427 9.7746C483.427 10.1929 483.591 10.5946 483.884 10.8934C484.177 11.1921 484.575 11.3641 484.994 11.3724H506.099C506.518 11.3641 506.916 11.1921 507.209 10.8934C507.502 10.5946 507.666 10.1929 507.666 9.7746C507.666 9.35625 507.502 8.95458 507.209 8.65583C506.916 8.35709 506.518 8.18509 506.099 8.17676V8.17676Z" fill="#3F3D56"/>
<path d="M506.099 14.1667H484.994C484.575 14.175 484.177 14.347 483.884 14.6458C483.591 14.9445 483.427 15.3462 483.427 15.7645C483.427 16.1829 483.591 16.5846 483.884 16.8833C484.177 17.182 484.575 17.354 484.994 17.3624H506.099C506.518 17.354 506.916 17.182 507.209 16.8833C507.502 16.5846 507.666 16.1829 507.666 15.7645C507.666 15.3462 507.502 14.9445 507.209 14.6458C506.916 14.347 506.518 14.175 506.099 14.1667V14.1667Z" fill="#3F3D56"/>
<path d="M463.073 48.7479H435.109C433.009 48.7479 431.306 50.4504 431.306 52.5505V52.5505C431.306 54.6507 433.009 56.3531 435.109 56.3531H463.073C465.174 56.3531 466.876 54.6507 466.876 52.5505C466.876 50.4504 465.174 48.7479 463.073 48.7479Z" fill="#98C673"/>
<path d="M481.138 63.9584H417.044C414.944 63.9584 413.241 65.6609 413.241 67.761V67.761C413.241 69.8611 414.944 71.5636 417.044 71.5636H481.138C483.238 71.5636 484.941 69.8611 484.941 67.761C484.941 65.6609 483.238 63.9584 481.138 63.9584Z" fill="#E6E6E6"/>
<path d="M481.138 79.1688H417.044C414.944 79.1688 413.241 80.8713 413.241 82.9714V82.9714C413.241 85.0716 414.944 86.774 417.044 86.774H481.138C483.238 86.774 484.941 85.0716 484.941 82.9714C484.941 80.8713 483.238 79.1688 481.138 79.1688Z" fill="#E6E6E6"/>
<path d="M157.505 255.107H139.852C139.378 255.107 136.764 253.724 136.764 252.019V242.214C136.68 234.798 160.963 234.312 161.055 242.214V252.019C161.055 253.724 159.211 255.107 157.505 255.107Z" fill="#E6E6E6"/>
<path d="M158.419 235.568C157.563 235.261 156.653 235.131 155.745 235.185C155.988 235.104 156.211 234.974 156.4 234.801C156.234 234.794 156.069 234.772 155.907 234.735C155.729 234.701 155.561 234.626 155.417 234.516C155.346 234.459 155.29 234.387 155.254 234.303C155.218 234.22 155.204 234.129 155.212 234.039C155.245 233.815 155.454 233.63 155.433 233.405C155.408 233.146 155.11 233.02 154.95 232.815C154.853 232.661 154.808 232.479 154.824 232.297C154.839 232.115 154.913 231.943 155.034 231.807C155.186 231.63 155.372 231.486 155.581 231.383C155.228 231.292 154.858 231.297 154.508 231.398C154.692 231.256 154.829 231.064 154.905 230.845C154.98 230.625 154.989 230.389 154.932 230.164C154.834 229.883 154.669 229.63 154.451 229.427C154.232 229.225 153.967 229.08 153.679 229.004C153.103 228.858 152.505 228.81 151.913 228.861C152.416 228.706 152.34 227.917 151.955 227.557C151.57 227.197 151.019 227.047 150.656 226.665C150.293 226.283 150.322 225.468 150.846 225.404L150.781 225.218C150.511 225.117 150.222 225.076 149.934 225.096C149.646 225.116 149.366 225.198 149.113 225.336C148.859 225.474 148.639 225.665 148.465 225.896C148.292 226.127 148.171 226.392 148.109 226.674C148.013 227.271 148.192 227.932 147.892 228.457C147.51 229.127 146.582 229.203 145.815 229.129C145.061 228.935 144.261 229.045 143.587 229.433C143.377 229.608 143.227 229.843 143.157 230.108C143.088 230.372 143.102 230.651 143.199 230.906C143.295 231.162 143.469 231.381 143.696 231.533C143.923 231.685 144.191 231.763 144.464 231.756C143.959 231.759 143.456 231.825 142.968 231.953L143.438 232.136C143.543 232.168 143.64 232.222 143.722 232.295C143.762 232.332 143.79 232.381 143.801 232.434C143.813 232.488 143.807 232.544 143.785 232.594C143.71 232.73 143.515 232.726 143.361 232.702L142.338 232.548C142.393 232.567 142.443 232.597 142.485 232.637C142.526 232.678 142.559 232.727 142.579 232.781C142.599 232.835 142.607 232.893 142.602 232.951C142.597 233.009 142.579 233.065 142.549 233.115C142.52 233.165 142.48 233.207 142.431 233.239C142.383 233.272 142.329 233.293 142.271 233.301C142.214 233.31 142.155 233.305 142.1 233.288C142.045 233.271 141.994 233.242 141.951 233.202C142.056 233.325 142.141 233.464 142.202 233.614C142.231 233.689 142.242 233.77 142.234 233.851C142.226 233.931 142.198 234.009 142.154 234.076C142.053 234.169 141.925 234.228 141.788 234.245C141.651 234.261 141.513 234.235 141.392 234.169C141.309 234.137 141.225 234.1 141.14 234.066C141.142 234.095 141.144 234.125 141.148 234.155C141.176 234.349 141.244 234.535 141.348 234.702C141.452 234.869 141.589 235.012 141.752 235.123C141.288 235.177 140.86 235.402 140.553 235.754C140.294 236.076 140.146 236.473 140.132 236.887C140.118 237.3 140.238 237.706 140.474 238.046C139.958 237.817 139.392 237.724 138.83 237.773C138.551 237.807 138.294 237.943 138.108 238.155C137.922 238.366 137.821 238.638 137.822 238.919C137.915 239.633 138.799 239.893 139.513 239.982C145.127 240.673 150.805 240.672 156.42 239.98C157.183 239.928 157.93 239.738 158.624 239.419C158.97 239.256 159.269 239.007 159.493 238.697C159.717 238.387 159.859 238.026 159.906 237.646C159.891 237.192 159.742 236.752 159.477 236.382C159.213 236.012 158.844 235.729 158.419 235.568V235.568Z" fill="#98C673"/>
<path d="M162.586 243.831C162.524 243.562 162.372 243.321 162.155 243.15C161.938 242.978 161.67 242.885 161.393 242.886C160.85 242.901 160.365 243.288 159.832 243.203C159.39 243.133 159.042 242.747 158.597 242.806C158.19 242.86 157.971 243.258 157.666 243.472H156.886C156.582 243.233 156.433 242.748 156.011 242.612C155.376 242.408 154.867 243.124 154.202 243.251C153.817 243.294 153.428 243.219 153.086 243.038C152.751 242.856 152.388 242.733 152.011 242.674C151.845 242.649 151.676 242.672 151.523 242.739C151.369 242.806 151.238 242.916 151.145 243.054C151.165 242.852 150.902 242.653 150.634 242.64C150.335 242.651 150.045 242.741 149.791 242.9C149.537 243.059 149.243 243.143 148.944 243.142C148.279 243.084 147.954 242.308 147.286 242.3C146.445 242.289 146.108 243.487 145.277 243.385C144.845 243.332 144.611 242.939 144.226 242.771C143.817 242.646 143.38 242.641 142.969 242.759L141.002 243.127C140.426 243.286 139.818 243.292 139.238 243.144C138.817 242.992 138.407 242.661 137.972 242.787C137.593 242.897 137.408 243.321 137.007 243.343C136.751 243.311 136.504 243.226 136.282 243.095C136.074 243.021 135.848 243.01 135.635 243.064C135.421 243.118 135.228 243.234 135.079 243.398C134.859 244.295 134.824 245.227 134.975 246.138C134.969 246.332 134.984 246.526 135.02 246.717L136.998 254.631C137.231 255.844 137.831 256.722 139.067 256.722H158.29C158.889 256.722 159.47 256.513 159.932 256.131C160.393 255.75 160.708 255.219 160.82 254.631L162.798 246.717C162.802 246.696 162.805 246.676 162.808 246.656C162.855 245.709 162.78 244.759 162.586 243.831Z" fill="#CCCCCC"/>
<path opacity="0.2" d="M139.083 243.236L139.467 248.231C139.595 249.896 139.406 251.538 139.534 253.203C139.606 254.141 139.996 255.102 140.068 256.04C140.076 256.15 140.25 256.151 140.241 256.04L139.857 251.044L139.472 246.049L139.256 243.236C139.247 243.125 139.074 243.124 139.083 243.236V243.236Z" fill="black"/>
<path opacity="0.2" d="M142.421 243.433L142.571 248.356L142.721 253.278L142.805 256.042C142.808 256.153 142.982 256.153 142.978 256.042L142.828 251.119L142.679 246.197L142.595 243.433C142.591 243.322 142.418 243.322 142.421 243.433Z" fill="black"/>
<path opacity="0.2" d="M145.656 243.729L145.61 248.486L145.565 253.214L145.539 255.895C145.54 255.918 145.549 255.939 145.565 255.955C145.582 255.97 145.603 255.979 145.626 255.979C145.648 255.979 145.67 255.97 145.686 255.955C145.702 255.939 145.711 255.918 145.712 255.895L145.758 251.138L145.803 246.41L145.829 243.729C145.828 243.706 145.818 243.685 145.802 243.669C145.786 243.654 145.765 243.645 145.742 243.645C145.72 243.645 145.698 243.654 145.682 243.669C145.666 243.685 145.656 243.706 145.656 243.729V243.729Z" fill="black"/>
<path opacity="0.2" d="M148.099 243.583L148.193 248.399L148.288 253.186L148.341 255.897C148.342 255.919 148.351 255.941 148.367 255.956C148.383 255.972 148.405 255.981 148.427 255.981C148.45 255.981 148.471 255.972 148.488 255.956C148.504 255.941 148.513 255.919 148.514 255.897L148.419 251.081L148.325 246.294L148.272 243.583C148.271 243.561 148.261 243.54 148.245 243.524C148.229 243.508 148.208 243.5 148.185 243.5C148.163 243.5 148.141 243.508 148.125 243.524C148.109 243.54 148.099 243.561 148.099 243.583V243.583Z" fill="black"/>
<path opacity="0.2" d="M151.66 243.385L151.768 248.33L151.876 253.274L151.937 256.042C151.938 256.064 151.947 256.085 151.963 256.101C151.979 256.117 152.001 256.125 152.023 256.125C152.046 256.125 152.067 256.117 152.084 256.101C152.1 256.085 152.109 256.064 152.11 256.042L152.002 251.097L151.893 246.153L151.833 243.385C151.832 243.363 151.822 243.342 151.806 243.327C151.79 243.311 151.769 243.303 151.746 243.303C151.724 243.303 151.702 243.311 151.686 243.327C151.67 243.342 151.661 243.363 151.66 243.385V243.385Z" fill="black"/>
<path opacity="0.2" d="M154.616 243.535L154.993 248.517L155.369 253.484L155.582 256.284C155.59 256.394 155.763 256.395 155.755 256.284L155.377 251.302L155.001 246.335L154.789 243.535C154.78 243.425 154.607 243.424 154.616 243.535Z" fill="black"/>
<path opacity="0.2" d="M157.9 244.116L158.128 248.674C158.204 250.194 157.818 251.713 157.894 253.232L158.022 255.792C158.027 255.903 158.2 255.903 158.195 255.792C158.119 254.273 158.504 252.753 158.429 251.234L158.201 246.675L158.073 244.116C158.068 244.005 157.895 244.004 157.9 244.116Z" fill="black"/>
<path d="M147.871 231.627C148.237 231.627 148.535 231.421 148.535 231.166C148.535 230.911 148.237 230.704 147.871 230.704C147.505 230.704 147.208 230.911 147.208 231.166C147.208 231.421 147.505 231.627 147.871 231.627Z" fill="#E6E6E6"/>
<path d="M152.083 232.666C152.449 232.666 152.746 232.459 152.746 232.204C152.746 231.949 152.449 231.743 152.083 231.743C151.716 231.743 151.419 231.949 151.419 232.204C151.419 232.459 151.716 232.666 152.083 232.666Z" fill="#3F3D56"/>
<path d="M146.198 234.916C146.564 234.916 146.861 234.709 146.861 234.454C146.861 234.199 146.564 233.993 146.198 233.993C145.831 233.993 145.534 234.199 145.534 234.454C145.534 234.709 145.831 234.916 146.198 234.916Z" fill="#FF6584"/>
<path d="M151.684 235.524C151.916 235.524 152.104 235.393 152.104 235.232C152.104 235.071 151.916 234.941 151.684 234.941C151.453 234.941 151.265 235.071 151.265 235.232C151.265 235.393 151.453 235.524 151.684 235.524Z" fill="#E6E6E6"/>
<path d="M154.347 236.18C154.578 236.18 154.766 236.05 154.766 235.888C154.766 235.727 154.578 235.597 154.347 235.597C154.115 235.597 153.927 235.727 153.927 235.888C153.927 236.05 154.115 236.18 154.347 236.18Z" fill="#3F3D56"/>
<path d="M150.627 237.602C150.858 237.602 151.046 237.472 151.046 237.31C151.046 237.149 150.858 237.019 150.627 237.019C150.395 237.019 150.208 237.149 150.208 237.31C150.208 237.472 150.395 237.602 150.627 237.602Z" fill="#FF6584"/>
<path d="M155.608 237.139C155.839 237.139 156.027 237.009 156.027 236.848C156.027 236.686 155.839 236.556 155.608 236.556C155.376 236.556 155.188 236.686 155.188 236.848C155.188 237.009 155.376 237.139 155.608 237.139Z" fill="#E6E6E6"/>
<path d="M158.27 237.796C158.502 237.796 158.689 237.665 158.689 237.504C158.689 237.343 158.502 237.212 158.27 237.212C158.038 237.212 157.851 237.343 157.851 237.504C157.851 237.665 158.038 237.796 158.27 237.796Z" fill="#3F3D56"/>
<path d="M154.55 239.217C154.782 239.217 154.97 239.087 154.97 238.926C154.97 238.765 154.782 238.634 154.55 238.634C154.319 238.634 154.131 238.765 154.131 238.926C154.131 239.087 154.319 239.217 154.55 239.217Z" fill="#FF6584"/>
<path d="M144.799 235.601C144.83 235.371 144.727 235.167 144.567 235.146C144.407 235.124 144.252 235.292 144.221 235.521C144.189 235.75 144.293 235.954 144.453 235.976C144.612 235.998 144.767 235.83 144.799 235.601Z" fill="#E6E6E6"/>
<path d="M143.785 238.148C143.817 237.918 143.713 237.715 143.553 237.693C143.394 237.671 143.239 237.839 143.207 238.068C143.176 238.298 143.279 238.501 143.439 238.523C143.598 238.545 143.753 238.377 143.785 238.148Z" fill="#3F3D56"/>
<path d="M142.884 234.27C142.916 234.04 142.812 233.836 142.652 233.814C142.493 233.792 142.338 233.961 142.306 234.19C142.275 234.419 142.378 234.623 142.538 234.645C142.698 234.667 142.853 234.499 142.884 234.27Z" fill="#FF6584"/>
<path d="M149.357 234.216C149.388 233.987 149.285 233.783 149.125 233.761C148.966 233.739 148.811 233.907 148.779 234.137C148.747 234.366 148.851 234.57 149.011 234.592C149.17 234.614 149.325 234.446 149.357 234.216Z" fill="#E6E6E6"/>
<path d="M148.343 236.763C148.375 236.534 148.271 236.33 148.111 236.308C147.952 236.286 147.797 236.454 147.765 236.684C147.734 236.913 147.837 237.117 147.997 237.139C148.157 237.161 148.312 236.993 148.343 236.763Z" fill="#3F3D56"/>
<path d="M147.442 232.885C147.473 232.656 147.37 232.452 147.21 232.43C147.051 232.408 146.895 232.576 146.864 232.805C146.832 233.035 146.936 233.239 147.096 233.261C147.255 233.283 147.41 233.114 147.442 232.885Z" fill="#FF6584"/>
<path d="M150.592 231.397C150.623 231.168 150.52 230.964 150.36 230.942C150.2 230.92 150.045 231.088 150.014 231.317C149.982 231.547 150.086 231.75 150.246 231.772C150.405 231.794 150.56 231.626 150.592 231.397Z" fill="#3F3D56"/>
<path d="M149.692 227.52C149.724 227.291 149.62 227.087 149.461 227.065C149.301 227.043 149.146 227.211 149.114 227.44C149.083 227.67 149.186 227.874 149.346 227.896C149.506 227.918 149.661 227.749 149.692 227.52Z" fill="#FF6584"/>
<path d="M311.152 181.997C314.542 181.997 317.29 180.086 317.29 177.728C317.29 175.37 314.542 173.458 311.152 173.458C307.762 173.458 305.013 175.37 305.013 177.728C305.013 180.086 307.762 181.997 311.152 181.997Z" fill="#E6E6E6"/>
<path d="M350.119 191.604C353.509 191.604 356.257 189.693 356.257 187.335C356.257 184.976 353.509 183.065 350.119 183.065C346.728 183.065 343.98 184.976 343.98 187.335C343.98 189.693 346.728 191.604 350.119 191.604Z" fill="#3F3D56"/>
<path d="M295.672 212.419C299.062 212.419 301.811 210.508 301.811 208.149C301.811 205.791 299.062 203.88 295.672 203.88C292.282 203.88 289.534 205.791 289.534 208.149C289.534 210.508 292.282 212.419 295.672 212.419Z" fill="#FF6584"/>
<path d="M382.731 232.991C384.873 232.991 386.61 231.783 386.61 230.292C386.61 228.802 384.873 227.594 382.731 227.594C380.588 227.594 378.851 228.802 378.851 230.292C378.851 231.783 380.588 232.991 382.731 232.991Z" fill="#E6E6E6"/>
<path d="M407.358 239.062C409.5 239.062 411.237 237.854 411.237 236.364C411.237 234.874 409.5 233.666 407.358 233.666C405.215 233.666 403.478 234.874 403.478 236.364C403.478 237.854 405.215 239.062 407.358 239.062Z" fill="#3F3D56"/>
<path d="M282.726 218.756C283.018 216.634 282.058 214.748 280.582 214.545C279.105 214.342 277.671 215.897 277.379 218.019C277.086 220.142 278.046 222.027 279.523 222.23C280.999 222.434 282.433 220.878 282.726 218.756Z" fill="#E6E6E6"/>
<path d="M273.351 242.321C273.643 240.199 272.683 238.314 271.207 238.11C269.73 237.907 268.296 239.462 268.004 241.585C267.711 243.707 268.671 245.592 270.148 245.796C271.624 245.999 273.058 244.444 273.351 242.321Z" fill="#3F3D56"/>
<path d="M265.014 206.442C265.306 204.32 264.346 202.435 262.87 202.231C261.393 202.028 259.959 203.583 259.667 205.706C259.374 207.828 260.334 209.713 261.811 209.917C263.287 210.12 264.721 208.565 265.014 206.442Z" fill="#FF6584"/>
<path d="M324.897 205.948C325.19 203.826 324.23 201.94 322.753 201.737C321.277 201.533 319.842 203.089 319.55 205.211C319.258 207.334 320.218 209.219 321.694 209.422C323.171 209.626 324.605 208.07 324.897 205.948Z" fill="#E6E6E6"/>
<path d="M307.183 193.633C307.476 191.511 306.516 189.626 305.039 189.422C303.563 189.219 302.129 190.774 301.836 192.897C301.544 195.019 302.504 196.904 303.98 197.108C305.457 197.311 306.891 195.755 307.183 193.633Z" fill="#FF6584"/>
<path d="M471.136 400.492C471.531 400.51 471.922 400.406 472.256 400.195C472.59 399.983 472.851 399.674 473.003 399.309C473.156 398.944 473.193 398.542 473.109 398.155C473.025 397.769 472.824 397.418 472.533 397.149C472.485 396.956 472.45 396.817 472.401 396.624C472.779 395.664 473.435 394.838 474.286 394.253C475.136 393.668 476.142 393.351 477.174 393.341C478.206 393.331 479.217 393.63 480.079 394.199C480.94 394.767 481.612 395.58 482.008 396.533C484.294 401.883 487.252 407.421 485.781 413.313C495.499 392.72 492.194 367.103 477.832 349.492C475.806 348.416 474.04 346.912 472.654 345.084C471.268 343.257 470.296 341.15 469.807 338.91C471.771 339.575 474.221 337.977 472.744 335.908C472.103 335.117 471.457 334.333 470.817 333.542C478.28 325.594 487.172 338.085 478.957 348.811C481.645 352.18 483.972 355.82 485.903 359.673C485.457 355.582 485.989 351.444 487.455 347.598C488.941 344.014 491.726 340.996 494.178 337.898C494.834 337.057 495.727 336.432 496.742 336.103C497.757 335.775 498.847 335.758 499.871 336.054C500.896 336.351 501.808 336.948 502.49 337.768C503.172 338.588 503.593 339.594 503.698 340.655C500.946 341.559 500.589 345.534 503.736 346.078C503.257 350.531 501.662 354.791 499.098 358.464C496.534 362.137 493.084 365.103 489.069 367.088C492.031 375.397 493.187 384.242 492.461 393.033C493.877 382.759 504.907 380.266 512.616 376.182C513.107 375.867 513.679 375.702 514.262 375.707C514.844 375.712 515.413 375.886 515.899 376.208C516.385 376.531 516.766 376.988 516.996 377.523C517.226 378.058 517.296 378.649 517.196 379.224C516.132 379.656 515.114 380.193 514.156 380.827C513.707 381.129 513.363 381.562 513.17 382.067C512.977 382.572 512.945 383.125 513.078 383.649C513.211 384.173 513.504 384.643 513.915 384.995C514.326 385.346 514.835 385.562 515.374 385.612C511.488 395.229 501.441 401.686 491.122 401.65C490.13 405.959 488.693 410.152 486.835 414.164H471.519C471.464 413.994 471.415 413.818 471.366 413.648C472.783 413.737 474.206 413.652 475.603 413.396C471.853 408.956 468.952 406.69 471.135 400.492L471.136 400.492Z" fill="#F2F2F2"/>
<path d="M171.257 400.262C170.862 400.281 170.471 400.177 170.137 399.965C169.803 399.754 169.542 399.445 169.389 399.08C169.237 398.715 169.2 398.312 169.284 397.926C169.368 397.539 169.569 397.188 169.86 396.92L169.992 396.395C169.614 395.434 168.957 394.609 168.107 394.024C167.257 393.439 166.251 393.121 165.219 393.112C164.187 393.102 163.175 393.4 162.314 393.969C161.453 394.538 160.781 395.351 160.385 396.304C158.099 401.654 155.141 407.192 156.612 413.084C146.894 392.49 150.199 366.874 164.561 349.262C166.586 348.186 168.353 346.682 169.739 344.855C171.125 343.028 172.096 340.921 172.586 338.68C170.622 339.346 168.172 337.748 169.649 335.679C170.289 334.888 170.936 334.103 171.576 333.312C164.113 325.365 155.221 337.855 163.436 348.582C160.748 351.951 158.42 355.591 156.49 359.444C156.936 355.353 156.404 351.214 154.938 347.369C153.452 343.785 150.667 340.767 148.215 337.669C147.559 336.828 146.666 336.203 145.651 335.874C144.636 335.545 143.546 335.528 142.521 335.825C141.497 336.122 140.585 336.719 139.903 337.539C139.221 338.359 138.8 339.364 138.695 340.426C141.447 341.33 141.804 345.305 138.657 345.849C139.136 350.302 140.731 354.562 143.295 358.235C145.859 361.907 149.309 364.874 153.324 366.859C150.362 375.168 149.206 384.013 149.932 392.804C148.516 382.53 137.486 380.036 129.777 375.953C129.286 375.638 128.714 375.473 128.131 375.478C127.548 375.483 126.98 375.657 126.494 375.979C126.008 376.302 125.627 376.758 125.397 377.294C125.166 377.829 125.097 378.42 125.197 378.994C126.261 379.427 127.279 379.964 128.237 380.598C128.686 380.9 129.03 381.333 129.223 381.838C129.416 382.343 129.448 382.896 129.315 383.42C129.181 383.944 128.889 384.414 128.478 384.765C128.067 385.117 127.558 385.333 127.019 385.383C130.905 395 140.952 401.457 151.271 401.421C152.263 405.729 153.699 409.923 155.558 413.935H170.874C170.928 413.765 170.978 413.589 171.027 413.419C169.61 413.508 168.186 413.423 166.789 413.166C170.54 408.726 173.441 406.461 171.258 400.263L171.257 400.262Z" fill="#F2F2F2"/>
<path d="M209.629 220.988L208 211.547L232.766 200.365L238.115 190.897C237.942 190.066 238.002 189.204 238.289 188.405C238.576 187.606 239.078 186.902 239.739 186.371C240.401 185.84 241.197 185.501 242.039 185.394C242.881 185.286 243.736 185.413 244.51 185.761C245.284 186.109 245.947 186.664 246.426 187.365C246.904 188.066 247.179 188.885 247.221 189.733C247.263 190.581 247.07 191.423 246.663 192.168C246.256 192.913 245.651 193.53 244.915 193.953L236.116 207.553L209.629 220.988Z" fill="#A0616A"/>
<path d="M202.101 213.269L213.254 207.574L216.207 218.659L208.459 224.4L202.101 213.269Z" fill="#3F3D56"/>
<path d="M177.074 401.677H183.817L187.025 375.67H177.073L177.074 401.677Z" fill="#A0616A"/>
<path d="M186.061 402.284V397.713L184.288 397.822L177.072 398.249L175.401 398.352L174.125 413.661L174.056 414.482H178.844L178.998 413.667L179.694 409.962L181.489 413.667L181.883 414.482H194.577C195.333 414.477 196.056 414.174 196.59 413.64C197.123 413.105 197.424 412.381 197.428 411.626C197.963 409.124 187.406 403.715 186.061 402.284Z" fill="#2F2E41"/>
<path d="M97.188 377.402L102.701 381.284L120.304 361.87L112.167 356.139L97.188 377.402Z" fill="#A0616A"/>
<path d="M104.383 382.577L107.016 378.84L105.504 377.908L99.3584 374.102L97.9339 373.224L88.0721 385.004L87.5435 385.635L91.4579 388.393L92.0532 387.815L94.7556 385.187L94.0897 389.25L93.9418 390.142L104.32 397.452C104.94 397.883 105.706 398.052 106.45 397.923C107.194 397.793 107.857 397.375 108.295 396.759C110.174 395.022 104.659 384.521 104.383 382.577Z" fill="#2F2E41"/>
<path d="M187.5 233.358L178.82 229.301L161.511 250.246L150.967 252.913C150.211 252.527 149.363 252.358 148.517 252.425C147.671 252.491 146.859 252.79 146.172 253.288C145.485 253.786 144.95 254.465 144.624 255.249C144.299 256.032 144.196 256.891 144.328 257.729C144.46 258.567 144.821 259.353 145.371 259.999C145.921 260.645 146.639 261.127 147.446 261.39C148.253 261.654 149.117 261.689 149.942 261.493C150.768 261.296 151.523 260.875 152.125 260.276L167.564 255.371L187.5 233.358Z" fill="#A0616A"/>
<path d="M178.75 267.097C178.75 267.097 164.508 276.369 168.274 282.531C168.403 282.743 137.938 325.033 137.938 325.033L103.775 361.86L115.519 372.534C115.519 372.534 147.973 338.743 153.418 333.039C158.862 327.335 182.643 298.799 182.643 298.799L183.518 334.065L174.414 382.934L188.007 382.072L201.237 333.044L206.12 277.509L178.75 267.097Z" fill="#2F2E41"/>
<path d="M188.894 211.447L182.905 215.985L176.079 230.552L182.643 239.465C182.643 239.465 188.164 249.033 179.326 258.299C170.489 267.564 163.702 277.461 170.776 277.107C177.85 276.754 206.5 291.324 206.688 279.387C206.877 267.45 207.258 258.299 207.258 258.299L214.77 239.25C214.77 239.25 219.245 227.886 216.103 224.485C212.961 221.083 208.754 216.736 208.754 216.736L201.104 209.087H194.196L188.894 211.447Z" fill="#3F3D56"/>
<path d="M200.074 183.458C213.509 191.102 202.479 211.272 188.793 204.09C175.358 196.446 186.388 176.276 200.074 183.458Z" fill="#A0616A"/>
<path d="M207.258 187.696C206.317 188.921 204.35 188.347 200.498 189.22C200.506 187.915 200.356 186.613 200.049 185.344C199.762 186.915 199.134 188.404 198.209 189.706C194.865 190.077 198.965 200.236 197.252 207.706C195.046 191.948 190.405 196.076 192.749 199.202C194.25 201.203 193.25 207.205 188.747 204.204C181.318 207.734 170.736 190.198 182.464 181.973C182.254 177.527 187.201 176.825 190.248 178.192C197.641 172.685 206.088 179.741 207.258 187.696Z" fill="#2F2E41"/>
<path d="M172.785 176.198C169.794 194.587 153.761 172.816 146.222 190.913C143.852 197.466 147.919 202.154 150.491 207.594C151.078 212.064 145.262 214.333 144.652 218.448C144.483 227.882 159.705 227.304 163.961 221.352C168.333 215.121 163.112 206.762 165.74 200.074C169.434 190.789 184.456 190.72 185.765 179.917C183.231 176.308 176.415 172.175 172.785 176.198Z" fill="#2F2E41"/>
<path d="M184.903 177.995C184.805 178.036 184.707 178.077 184.619 178.124H184.614C184.532 178.165 184.449 178.206 184.367 178.252C184.357 178.258 184.352 178.263 184.341 178.268C184.233 178.165 184.125 178.062 184.012 177.959C183.982 178.127 183.989 178.299 184.032 178.463L184.048 178.525C184.151 178.633 184.259 178.736 184.372 178.845C184.475 178.767 184.573 178.685 184.676 178.608C184.738 178.556 184.8 178.505 184.867 178.453C184.877 178.319 184.892 178.165 184.908 177.995L184.903 177.995ZM188.003 172.268C185.706 171.743 184.965 174.745 184.743 176.192C183.909 170.94 180.437 172.593 181.637 176.177C182.02 177.238 182.622 178.207 183.404 179.02C183.512 179.143 183.631 179.267 183.754 179.391C183.615 180.111 184.316 179.926 185.263 179.262C185.963 178.764 186.61 178.196 187.195 177.567C189.085 175.585 190.558 172.933 188.003 172.268ZM188.075 175.224C187.367 176.138 186.572 176.981 185.701 177.743C185.428 177.99 185.15 178.227 184.867 178.453C184.862 178.5 184.862 178.541 184.856 178.577C184.837 178.627 184.812 178.675 184.784 178.721C184.496 179.241 184.171 178.958 184.048 178.525C184.037 178.51 184.022 178.494 184.012 178.479C183.6 178.054 183.242 177.58 182.946 177.068C180.818 173.381 184.243 170.873 184.073 177.758C184.042 177.821 184.021 177.889 184.012 177.959C183.982 178.127 183.989 178.299 184.032 178.464L184.048 178.525C184.151 178.633 184.259 178.736 184.372 178.845C184.475 178.767 184.573 178.685 184.676 178.608C184.738 178.556 184.8 178.505 184.867 178.453C184.877 178.319 184.892 178.165 184.908 177.995V177.99C185.042 176.61 185.407 174.127 186.082 173.453C187.565 172.315 189.487 173.546 188.075 175.224H188.075ZM184.903 177.995C184.805 178.036 184.707 178.077 184.619 178.124H184.614C184.532 178.165 184.449 178.206 184.367 178.252C184.357 178.258 184.352 178.263 184.341 178.268C184.233 178.165 184.125 178.062 184.012 177.959C183.982 178.127 183.989 178.299 184.032 178.463L184.048 178.525C184.151 178.633 184.259 178.736 184.372 178.845C184.475 178.767 184.573 178.685 184.676 178.608C184.738 178.556 184.8 178.505 184.867 178.453C184.877 178.319 184.892 178.165 184.908 177.995L184.903 177.995Z" fill="#2F2E41"/>
<path d="M467.837 402.758L461.242 404.258L452.314 379.534L462.049 377.32L467.837 402.758Z" fill="#FFB6B6"/>
<path d="M469.635 409.584L449.353 414.198L449.295 413.942C448.818 411.848 449.193 409.651 450.337 407.834C451.48 406.017 453.299 404.729 455.392 404.252L455.393 404.252L458.458 400.599L466.01 401.837L467.781 401.434L469.635 409.584Z" fill="#2F2E41"/>
<path d="M553.845 389.761L548.149 393.408L531.37 373.173L539.778 367.791L553.845 389.761Z" fill="#FFB6B6"/>
<path d="M557.851 395.575L540.333 406.789L540.191 406.567C539.034 404.759 538.642 402.565 539.102 400.468C539.562 398.371 540.836 396.542 542.644 395.385L542.644 395.384L544.29 390.909L551.815 389.514L553.344 388.535L557.851 395.575Z" fill="#2F2E41"/>
<path d="M463.447 279.601L458.485 292.54L435.207 338.45L455.661 391.858L466.217 389.072L457.517 338.45L482.479 308.124L496.972 339.283L538.607 385.182L548.216 378.777L517.256 331.277L496.639 271.038L463.447 279.601Z" fill="#2F2E41"/>
<path d="M488.485 218.568L480.317 209.793L466.305 207.866L449.136 219.883L449.309 233.185L457.796 264.53C457.796 264.53 454.564 287.05 463.593 286.824C472.623 286.598 477.545 282.097 481.222 283.013C484.9 283.929 500.534 287.829 501.524 283.744C502.515 279.659 507.782 282.584 507.55 278.72C507.319 274.856 493.293 247.003 493.293 247.003L495.748 227.398C495.876 226.372 495.801 225.331 495.527 224.334C495.254 223.338 494.786 222.405 494.151 221.589C493.517 220.773 492.728 220.089 491.829 219.578C490.931 219.067 489.94 218.738 488.914 218.61C488.772 218.592 488.629 218.578 488.485 218.568L488.485 218.568Z" fill="#3F3D56"/>
<path d="M544.854 273.854C544.138 274.006 543.398 273.999 542.686 273.834C541.973 273.669 541.305 273.349 540.73 272.898C540.154 272.447 539.684 271.875 539.353 271.223C539.022 270.571 538.838 269.854 538.815 269.123L501.258 254.339L508.406 248.484L544.011 263.9C545.241 263.941 546.414 264.433 547.307 265.281C548.2 266.129 548.75 267.275 548.854 268.502C548.958 269.729 548.608 270.952 547.871 271.938C547.134 272.924 546.06 273.606 544.854 273.854V273.854Z" fill="#FFB6B6"/>
<path d="M491.66 220.195C491.66 220.195 485.262 220.145 484.476 227.427C483.69 234.709 497.105 253.176 499.178 256.217C499.827 257.17 502.616 258.253 506.142 259.292C507.724 259.759 509.456 260.216 511.208 260.649C512.222 260.899 512.676 262.58 513.679 262.811C514.678 263.04 516.227 261.82 517.166 262.024C521.626 262.991 525.151 263.637 525.151 263.637L533.488 257.955C529.282 251.746 521.236 249.205 512.12 247.687L491.66 220.195Z" fill="#3F3D56"/>
<path d="M397.521 186.379C397.632 187.101 397.901 187.791 398.307 188.399C398.714 189.007 399.249 189.518 399.875 189.897C400.501 190.275 401.202 190.512 401.929 190.591C402.656 190.669 403.392 190.587 404.084 190.351L431.211 220.234L434.156 211.477L407.13 183.642C406.655 182.506 405.78 181.583 404.671 181.049C403.561 180.515 402.294 180.406 401.11 180.743C399.925 181.08 398.906 181.84 398.244 182.879C397.583 183.918 397.325 185.163 397.521 186.379V186.379Z" fill="#FFB6B6"/>
<path d="M466.546 217.119C466.546 217.119 468.858 223.084 462.325 226.397C455.793 229.71 433.77 223.706 430.191 222.844C429.07 222.575 427.069 220.35 424.849 217.421C423.852 216.106 422.811 214.65 421.786 213.164C421.193 212.305 419.46 212.476 418.889 211.619C418.321 210.767 418.914 208.886 418.39 208.08C415.906 204.252 414.054 201.185 414.054 201.185L416.416 191.377C423.714 193.111 428.939 199.735 433.587 207.722L466.546 217.119Z" fill="#3F3D56"/>
<path d="M473.59 205.634C480.953 205.634 486.922 199.665 486.922 192.303C486.922 184.941 480.953 178.973 473.59 178.973C466.227 178.973 460.258 184.941 460.258 192.303C460.258 199.665 466.227 205.634 473.59 205.634Z" fill="#FFB6B6"/>
<path d="M488.809 184.671C488.125 183.57 487.145 182.684 485.979 182.116C484.814 181.548 483.512 181.322 482.224 181.462C481.986 179.834 481.307 178.302 480.259 177.034C479.211 175.766 477.835 174.809 476.282 174.268C474.728 173.727 473.055 173.623 471.446 173.967C469.837 174.31 468.353 175.089 467.156 176.217C466.762 175.94 466.304 175.769 465.825 175.722C465.345 175.674 464.862 175.75 464.421 175.944C463.543 176.343 462.779 176.956 462.199 177.727C460.736 179.552 459.794 181.74 459.475 184.058C459.156 186.376 459.472 188.737 460.389 190.89C460.077 189.757 461.213 188.691 462.361 188.436C463.508 188.182 464.712 188.422 465.876 188.257C467.368 188.045 468.709 187.179 470.203 186.985C471.47 186.902 472.741 187.066 473.946 187.466C475.15 187.865 476.419 188.036 477.687 187.968C478.944 187.819 480.564 192.583 480.542 195.939C480.538 196.575 480.669 197.392 481.291 197.527C482.056 197.693 482.5 196.637 483.229 196.349C483.564 196.253 483.924 196.291 484.233 196.454C484.541 196.618 484.774 196.896 484.882 197.228C484.974 197.566 484.984 197.92 484.911 198.263C484.838 198.605 484.684 198.925 484.462 199.196C484.015 199.733 483.483 200.194 482.888 200.561L483.188 200.811C483.473 201.112 483.853 201.304 484.265 201.355C484.676 201.407 485.092 201.313 485.442 201.091C486.13 200.625 486.687 199.991 487.06 199.248C488.467 197.074 489.472 194.665 490.029 192.136C490.578 189.583 490.142 186.917 488.809 184.671Z" fill="#2F2E41"/>
<path d="M336.338 179.877C336.63 177.754 335.67 175.869 334.194 175.665C332.717 175.462 331.283 177.018 330.99 179.14C330.698 181.262 331.658 183.148 333.134 183.351C334.611 183.554 336.045 181.999 336.338 179.877Z" fill="#3F3D56"/>
<path d="M554.498 270.929H536.845C536.371 270.929 533.758 269.546 533.758 267.841V258.036C533.673 250.62 557.956 250.134 558.048 258.036V267.841C558.048 269.546 556.204 270.929 554.498 270.929Z" fill="#E6E6E6"/>
<path d="M555.412 251.39C554.556 251.083 553.646 250.953 552.738 251.007C552.981 250.926 553.204 250.796 553.393 250.623C553.227 250.616 553.062 250.594 552.9 250.557C552.722 250.523 552.554 250.448 552.41 250.338C552.339 250.281 552.283 250.209 552.247 250.125C552.211 250.042 552.197 249.951 552.205 249.861C552.238 249.637 552.448 249.452 552.426 249.227C552.401 248.968 552.103 248.842 551.943 248.637C551.846 248.483 551.801 248.301 551.817 248.119C551.832 247.937 551.906 247.765 552.028 247.629C552.179 247.452 552.365 247.308 552.574 247.205C552.221 247.114 551.851 247.119 551.501 247.22C551.685 247.078 551.823 246.886 551.898 246.667C551.973 246.447 551.983 246.211 551.925 245.986C551.828 245.705 551.662 245.452 551.444 245.249C551.225 245.047 550.961 244.902 550.673 244.826C550.096 244.68 549.498 244.632 548.906 244.683C549.41 244.528 549.334 243.739 548.948 243.379C548.563 243.019 548.012 242.869 547.649 242.487C547.286 242.105 547.315 241.29 547.839 241.226L547.774 241.04C547.504 240.939 547.215 240.898 546.927 240.918C546.64 240.938 546.359 241.02 546.106 241.158C545.853 241.296 545.632 241.487 545.459 241.718C545.285 241.949 545.164 242.214 545.102 242.496C545.006 243.093 545.185 243.754 544.885 244.279C544.503 244.949 543.576 245.025 542.808 244.951C542.054 244.757 541.255 244.867 540.58 245.255C540.37 245.43 540.22 245.665 540.151 245.93C540.081 246.194 540.095 246.473 540.192 246.728C540.288 246.984 540.462 247.203 540.689 247.355C540.916 247.507 541.184 247.585 541.457 247.578C540.952 247.581 540.45 247.647 539.961 247.775L540.431 247.958C540.536 247.99 540.633 248.044 540.715 248.117C540.755 248.154 540.783 248.203 540.794 248.256C540.806 248.31 540.8 248.366 540.778 248.416C540.703 248.552 540.509 248.548 540.354 248.524L539.331 248.37C539.386 248.389 539.436 248.419 539.478 248.459C539.52 248.5 539.552 248.549 539.572 248.603C539.592 248.657 539.6 248.715 539.595 248.773C539.59 248.831 539.572 248.887 539.543 248.937C539.513 248.987 539.473 249.029 539.425 249.062C539.377 249.094 539.322 249.115 539.264 249.123C539.207 249.132 539.149 249.127 539.093 249.11C539.038 249.093 538.987 249.064 538.944 249.024C539.05 249.147 539.134 249.286 539.195 249.436C539.224 249.511 539.235 249.592 539.227 249.673C539.219 249.753 539.191 249.831 539.147 249.898C539.046 249.991 538.918 250.05 538.781 250.067C538.644 250.083 538.506 250.057 538.385 249.991C538.302 249.959 538.218 249.922 538.133 249.888C538.135 249.917 538.137 249.947 538.141 249.977C538.169 250.171 538.237 250.357 538.341 250.524C538.445 250.691 538.582 250.834 538.745 250.945C538.281 250.999 537.853 251.224 537.546 251.576C537.287 251.898 537.139 252.295 537.125 252.709C537.111 253.122 537.231 253.528 537.468 253.868C536.951 253.639 536.385 253.546 535.823 253.595C535.544 253.63 535.287 253.765 535.101 253.977C534.915 254.188 534.814 254.46 534.815 254.741C534.909 255.455 535.792 255.715 536.506 255.804C542.121 256.495 547.799 256.494 553.413 255.802C554.176 255.75 554.923 255.56 555.617 255.241C555.963 255.078 556.262 254.829 556.486 254.519C556.71 254.209 556.852 253.848 556.899 253.468C556.884 253.014 556.735 252.574 556.47 252.204C556.206 251.834 555.838 251.551 555.412 251.39Z" fill="#98C673"/>
<path d="M559.579 259.653C559.517 259.384 559.365 259.143 559.148 258.972C558.932 258.8 558.663 258.707 558.386 258.709C557.844 258.723 557.359 259.11 556.826 259.025C556.383 258.955 556.036 258.569 555.591 258.628C555.183 258.682 554.964 259.08 554.66 259.294H553.879C553.575 259.055 553.426 258.57 553.004 258.435C552.369 258.23 551.86 258.946 551.195 259.073C550.81 259.116 550.421 259.041 550.079 258.86C549.744 258.678 549.381 258.555 549.004 258.496C548.839 258.471 548.669 258.494 548.516 258.561C548.363 258.628 548.231 258.738 548.138 258.876C548.158 258.674 547.895 258.475 547.627 258.462C547.329 258.473 547.038 258.563 546.785 258.722C546.531 258.881 546.237 258.965 545.937 258.964C545.273 258.906 544.947 258.13 544.279 258.122C543.438 258.111 543.102 259.309 542.27 259.207C541.838 259.154 541.605 258.761 541.219 258.593C540.81 258.468 540.373 258.463 539.962 258.581L537.995 258.949C537.419 259.108 536.811 259.114 536.232 258.966C535.81 258.814 535.4 258.483 534.965 258.609C534.586 258.719 534.401 259.143 534 259.165C533.744 259.133 533.497 259.048 533.275 258.917C533.067 258.843 532.842 258.833 532.628 258.886C532.414 258.94 532.221 259.056 532.073 259.22C531.852 260.117 531.817 261.049 531.968 261.96C531.962 262.154 531.977 262.348 532.014 262.539L533.991 270.453C534.224 271.666 534.824 272.544 536.06 272.544H555.283C555.883 272.544 556.463 272.335 556.925 271.953C557.387 271.572 557.701 271.041 557.814 270.453L559.792 262.539C559.795 262.518 559.798 262.498 559.801 262.478C559.848 261.531 559.774 260.581 559.579 259.653Z" fill="#CCCCCC"/>
<path opacity="0.2" d="M536.076 259.058L536.46 264.053C536.588 265.718 536.399 267.36 536.527 269.025C536.599 269.963 536.989 270.924 537.061 271.861C537.07 271.972 537.243 271.973 537.234 271.861L536.85 266.866L536.466 261.871L536.249 259.058C536.241 258.947 536.067 258.946 536.076 259.058V259.058Z" fill="black"/>
<path opacity="0.2" d="M539.414 259.255L539.564 264.178L539.714 269.1L539.798 271.864C539.801 271.975 539.974 271.975 539.971 271.864L539.821 266.941L539.671 262.019L539.587 259.255C539.584 259.144 539.411 259.144 539.414 259.255Z" fill="black"/>
<path opacity="0.2" d="M542.649 259.551L542.603 264.308L542.558 269.036L542.532 271.717C542.533 271.74 542.543 271.761 542.559 271.777C542.575 271.792 542.596 271.801 542.619 271.801C542.641 271.801 542.663 271.792 542.679 271.777C542.695 271.761 542.704 271.74 542.705 271.717L542.751 266.96L542.796 262.232L542.822 259.551C542.821 259.528 542.812 259.507 542.795 259.491C542.779 259.476 542.758 259.467 542.735 259.467C542.713 259.467 542.691 259.476 542.675 259.491C542.659 259.507 542.65 259.528 542.649 259.551V259.551Z" fill="black"/>
<path opacity="0.2" d="M545.092 259.405L545.187 264.221L545.281 269.008L545.334 271.719C545.335 271.741 545.344 271.763 545.36 271.778C545.376 271.794 545.398 271.802 545.421 271.802C545.443 271.802 545.465 271.794 545.481 271.778C545.497 271.763 545.506 271.741 545.507 271.719L545.412 266.903L545.318 262.116L545.265 259.405C545.264 259.383 545.255 259.361 545.238 259.346C545.222 259.33 545.201 259.322 545.178 259.322C545.156 259.322 545.134 259.33 545.118 259.346C545.102 259.361 545.093 259.383 545.092 259.405V259.405Z" fill="black"/>
<path opacity="0.2" d="M548.653 259.207L548.761 264.152L548.869 269.096L548.93 271.864C548.931 271.886 548.94 271.907 548.956 271.923C548.973 271.939 548.994 271.947 549.017 271.947C549.039 271.947 549.061 271.939 549.077 271.923C549.093 271.907 549.102 271.886 549.103 271.864L548.995 266.919L548.887 261.975L548.826 259.207C548.825 259.185 548.816 259.164 548.8 259.148C548.783 259.133 548.762 259.124 548.739 259.124C548.717 259.124 548.695 259.133 548.679 259.148C548.663 259.164 548.654 259.185 548.653 259.207Z" fill="black"/>
<path opacity="0.2" d="M551.609 259.357L551.986 264.339L552.363 269.307L552.575 272.106C552.583 272.216 552.756 272.217 552.748 272.106L552.37 267.124L551.994 262.157L551.782 259.357C551.773 259.247 551.6 259.246 551.609 259.357Z" fill="black"/>
<path opacity="0.2" d="M554.893 259.938L555.121 264.496C555.197 266.016 554.811 267.535 554.887 269.054L555.015 271.614C555.02 271.725 555.193 271.725 555.188 271.614C555.112 270.095 555.498 268.575 555.422 267.056L555.194 262.497L555.066 259.938C555.061 259.827 554.888 259.826 554.893 259.938Z" fill="black"/>
<path d="M544.864 247.449C545.231 247.449 545.528 247.243 545.528 246.988C545.528 246.733 545.231 246.526 544.864 246.526C544.498 246.526 544.201 246.733 544.201 246.988C544.201 247.243 544.498 247.449 544.864 247.449Z" fill="#E6E6E6"/>
<path d="M549.076 248.488C549.442 248.488 549.739 248.281 549.739 248.026C549.739 247.771 549.442 247.565 549.076 247.565C548.709 247.565 548.412 247.771 548.412 248.026C548.412 248.281 548.709 248.488 549.076 248.488Z" fill="#3F3D56"/>
<path d="M543.191 250.738C543.557 250.738 543.854 250.531 543.854 250.276C543.854 250.021 543.557 249.815 543.191 249.815C542.824 249.815 542.527 250.021 542.527 250.276C542.527 250.531 542.824 250.738 543.191 250.738Z" fill="#FF6584"/>
<path d="M548.678 251.346C548.909 251.346 549.097 251.215 549.097 251.054C549.097 250.893 548.909 250.763 548.678 250.763C548.446 250.763 548.258 250.893 548.258 251.054C548.258 251.215 548.446 251.346 548.678 251.346Z" fill="#E6E6E6"/>
<path d="M551.339 252.002C551.571 252.002 551.759 251.872 551.759 251.71C551.759 251.549 551.571 251.419 551.339 251.419C551.108 251.419 550.92 251.549 550.92 251.71C550.92 251.872 551.108 252.002 551.339 252.002Z" fill="#3F3D56"/>
<path d="M547.62 253.424C547.852 253.424 548.039 253.293 548.039 253.132C548.039 252.971 547.852 252.841 547.62 252.841C547.388 252.841 547.201 252.971 547.201 253.132C547.201 253.293 547.388 253.424 547.62 253.424Z" fill="#FF6584"/>
<path d="M552.601 252.961C552.833 252.961 553.02 252.831 553.02 252.669C553.02 252.508 552.833 252.378 552.601 252.378C552.369 252.378 552.182 252.508 552.182 252.669C552.182 252.831 552.369 252.961 552.601 252.961Z" fill="#E6E6E6"/>
<path d="M555.263 253.618C555.494 253.618 555.682 253.487 555.682 253.326C555.682 253.165 555.494 253.034 555.263 253.034C555.031 253.034 554.843 253.165 554.843 253.326C554.843 253.487 555.031 253.618 555.263 253.618Z" fill="#3F3D56"/>
<path d="M551.543 255.039C551.775 255.039 551.963 254.909 551.963 254.748C551.963 254.587 551.775 254.456 551.543 254.456C551.312 254.456 551.124 254.587 551.124 254.748C551.124 254.909 551.312 255.039 551.543 255.039Z" fill="#FF6584"/>
<path d="M541.792 251.423C541.823 251.193 541.719 250.99 541.56 250.968C541.4 250.946 541.245 251.114 541.213 251.343C541.182 251.572 541.286 251.776 541.445 251.798C541.605 251.82 541.76 251.652 541.792 251.423Z" fill="#E6E6E6"/>
<path d="M540.775 253.969C540.807 253.739 540.703 253.536 540.543 253.514C540.384 253.492 540.229 253.66 540.197 253.889C540.165 254.119 540.269 254.322 540.429 254.344C540.588 254.366 540.743 254.198 540.775 253.969Z" fill="#3F3D56"/>
<path d="M539.877 250.092C539.909 249.862 539.805 249.658 539.645 249.636C539.486 249.615 539.331 249.783 539.299 250.012C539.267 250.241 539.371 250.445 539.531 250.467C539.69 250.489 539.845 250.321 539.877 250.092Z" fill="#FF6584"/>
<path d="M546.35 250.038C546.381 249.809 546.277 249.605 546.118 249.583C545.958 249.561 545.803 249.729 545.772 249.959C545.74 250.188 545.844 250.392 546.003 250.414C546.163 250.436 546.318 250.268 546.35 250.038Z" fill="#E6E6E6"/>
<path d="M545.336 252.585C545.368 252.356 545.264 252.152 545.105 252.13C544.945 252.108 544.79 252.276 544.758 252.506C544.727 252.735 544.831 252.939 544.99 252.961C545.15 252.983 545.305 252.815 545.336 252.585Z" fill="#3F3D56"/>
<path d="M544.435 248.707C544.467 248.478 544.363 248.274 544.203 248.252C544.044 248.23 543.889 248.398 543.857 248.627C543.825 248.857 543.929 249.061 544.089 249.083C544.248 249.105 544.403 248.936 544.435 248.707Z" fill="#FF6584"/>
<path d="M547.586 247.22C547.618 246.991 547.514 246.787 547.355 246.765C547.195 246.743 547.04 246.911 547.008 247.141C546.977 247.37 547.081 247.574 547.24 247.596C547.4 247.618 547.555 247.45 547.586 247.22Z" fill="#3F3D56"/>
<path d="M546.685 243.342C546.717 243.113 546.613 242.909 546.453 242.887C546.294 242.865 546.139 243.033 546.107 243.262C546.075 243.492 546.179 243.696 546.339 243.718C546.498 243.74 546.653 243.571 546.685 243.342Z" fill="#FF6584"/>
<path d="M670 415.074C669.377 416.92 0.672519 415.733 0 413.892C0.622511 412.042 669.327 413.228 670 415.074Z" fill="#CCCCCC"/>
<path d="M260.202 319.134C255.998 319.134 251.889 317.888 248.394 315.553C244.898 313.218 242.174 309.899 240.566 306.016C238.957 302.132 238.536 297.86 239.356 293.737C240.176 289.615 242.2 285.828 245.173 282.856C248.145 279.884 251.932 277.86 256.055 277.04C260.178 276.22 264.452 276.641 268.335 278.25C272.219 279.858 275.538 282.582 277.874 286.077C280.209 289.571 281.456 293.68 281.456 297.883C281.456 303.519 279.216 308.925 275.23 312.91C271.245 316.895 265.839 319.134 260.202 319.134V319.134Z" fill="#E6E6E6"/>
<path d="M268.588 295.787H262.298V289.498C262.298 288.942 262.077 288.409 261.684 288.016C261.291 287.623 260.757 287.402 260.201 287.402C259.645 287.402 259.112 287.623 258.719 288.016C258.326 288.409 258.105 288.942 258.105 289.498V295.787H251.815C251.26 295.788 250.728 296.009 250.335 296.402C249.943 296.795 249.723 297.328 249.723 297.883C249.723 298.438 249.943 298.971 250.335 299.364C250.728 299.757 251.26 299.978 251.815 299.979H258.105V306.268C258.106 306.824 258.327 307.356 258.72 307.748C259.113 308.14 259.646 308.361 260.201 308.361C260.757 308.361 261.289 308.14 261.682 307.748C262.076 307.356 262.297 306.824 262.298 306.268V299.979H268.588C268.863 299.98 269.136 299.926 269.391 299.821C269.646 299.716 269.878 299.562 270.073 299.367C270.268 299.172 270.423 298.941 270.528 298.686C270.634 298.432 270.688 298.159 270.688 297.883C270.688 297.608 270.634 297.335 270.528 297.08C270.423 296.825 270.268 296.594 270.073 296.399C269.878 296.205 269.646 296.05 269.391 295.945C269.136 295.84 268.863 295.786 268.588 295.787Z" fill="white"/>
<path d="M322.384 319.134C318.18 319.134 314.071 317.888 310.576 315.553C307.081 313.218 304.356 309.899 302.748 306.016C301.139 302.132 300.718 297.86 301.538 293.737C302.358 289.615 304.383 285.828 307.355 282.856C310.327 279.884 314.114 277.86 318.237 277.04C322.36 276.22 326.634 276.641 330.517 278.25C334.401 279.858 337.72 282.582 340.056 286.077C342.391 289.571 343.638 293.68 343.638 297.883C343.638 303.519 341.398 308.925 337.413 312.91C333.427 316.895 328.021 319.134 322.384 319.134V319.134Z" fill="#E6E6E6"/>
<path d="M330.77 295.787H313.998C313.442 295.788 312.91 296.009 312.518 296.402C312.126 296.795 311.905 297.328 311.905 297.883C311.905 298.438 312.126 298.971 312.518 299.364C312.91 299.757 313.442 299.978 313.998 299.979H330.77C331.046 299.98 331.319 299.926 331.574 299.821C331.829 299.716 332.06 299.562 332.255 299.367C332.451 299.172 332.605 298.941 332.711 298.686C332.817 298.432 332.871 298.159 332.871 297.883C332.871 297.608 332.817 297.335 332.711 297.08C332.605 296.825 332.451 296.594 332.255 296.399C332.06 296.205 331.829 296.05 331.574 295.945C331.319 295.84 331.046 295.786 330.77 295.787Z" fill="white"/>
<path d="M384.566 319.134C380.363 319.134 376.254 317.888 372.758 315.553C369.263 313.218 366.539 309.899 364.93 306.016C363.322 302.132 362.901 297.86 363.721 293.737C364.541 289.615 366.565 285.828 369.538 282.856C372.51 279.884 376.297 277.86 380.42 277.04C384.543 276.22 388.816 276.641 392.7 278.25C396.583 279.858 399.903 282.582 402.238 286.077C404.574 289.571 405.82 293.68 405.82 297.883C405.82 303.519 403.581 308.924 399.595 312.91C395.609 316.895 390.203 319.134 384.566 319.134Z" fill="#98C673"/>
<path d="M396.523 296.874L390.498 288.08C390.23 287.689 389.818 287.421 389.352 287.334C388.886 287.247 388.405 287.348 388.014 287.616C387.623 287.884 387.354 288.296 387.267 288.762C387.18 289.228 387.282 289.709 387.549 290.1L391.446 295.787H376.18C375.904 295.786 375.631 295.84 375.376 295.945C375.121 296.05 374.89 296.205 374.695 296.399C374.499 296.594 374.345 296.825 374.239 297.08C374.133 297.335 374.079 297.607 374.079 297.883C374.079 298.159 374.133 298.432 374.239 298.686C374.345 298.941 374.499 299.172 374.695 299.367C374.89 299.562 375.121 299.716 375.376 299.821C375.631 299.926 375.904 299.98 376.18 299.979H391.638L387.549 305.946C387.283 306.337 387.182 306.818 387.269 307.283C387.357 307.748 387.625 308.16 388.016 308.427C388.406 308.694 388.887 308.796 389.352 308.71C389.817 308.623 390.229 308.356 390.498 307.966L396.523 299.172C396.719 298.821 396.822 298.425 396.822 298.023C396.822 297.621 396.719 297.225 396.523 296.874V296.874Z" fill="white"/>
<path d="M230.188 67.761H202.224C200.124 67.761 198.421 69.4635 198.421 71.5636V71.5636C198.421 73.6637 200.124 75.3662 202.224 75.3662H230.188C232.288 75.3662 233.991 73.6637 233.991 71.5636C233.991 69.4635 232.288 67.761 230.188 67.761Z" fill="#98C673"/>
<path d="M248.253 82.9714H184.16C182.059 82.9714 180.356 84.6739 180.356 86.774V86.7741C180.356 88.8742 182.059 90.5767 184.16 90.5767H248.253C250.353 90.5767 252.056 88.8742 252.056 86.774C252.056 84.6739 250.353 82.9714 248.253 82.9714Z" fill="#E6E6E6"/>
<path d="M248.253 98.1818H184.16C182.059 98.1818 180.356 99.8843 180.356 101.984V101.984C180.356 104.085 182.059 105.787 184.16 105.787H248.253C250.353 105.787 252.056 104.085 252.056 101.984C252.056 99.8843 250.353 98.1818 248.253 98.1818Z" fill="#E6E6E6"/>
<path d="M244.3 179.832H242.675V118.88H126.79V117.256H244.3V179.832Z" fill="#E6E6E6"/>
<path d="M108.683 135.907C121.146 135.907 131.25 125.805 131.25 113.344C131.25 100.882 121.146 90.78 108.683 90.78C96.2197 90.78 86.1162 100.882 86.1162 113.344C86.1162 125.805 96.2197 135.907 108.683 135.907Z" fill="#E6E6E6"/>
<path d="M105.604 125.087C105.215 125.087 104.83 124.996 104.482 124.822C104.133 124.648 103.83 124.395 103.596 124.083L97.4397 115.875C97.2415 115.612 97.0972 115.311 97.0151 114.992C96.9329 114.672 96.9146 114.34 96.9611 114.013C97.0076 113.687 97.118 113.373 97.286 113.089C97.454 112.805 97.6763 112.557 97.9402 112.359C98.2041 112.161 98.5044 112.017 98.824 111.936C99.1436 111.854 99.4762 111.836 99.8027 111.883C100.129 111.929 100.443 112.04 100.727 112.209C101.011 112.377 101.259 112.599 101.456 112.863L105.484 118.233L115.829 102.718C116.012 102.443 116.247 102.207 116.521 102.023C116.795 101.84 117.102 101.712 117.425 101.647C117.749 101.582 118.082 101.582 118.405 101.646C118.729 101.71 119.037 101.837 119.311 102.02C119.586 102.203 119.821 102.438 120.005 102.712C120.188 102.986 120.316 103.293 120.381 103.617C120.445 103.94 120.445 104.273 120.381 104.597C120.317 104.92 120.19 105.228 120.006 105.502L107.693 123.969C107.47 124.303 107.171 124.579 106.82 124.773C106.468 124.968 106.075 125.075 105.674 125.086C105.651 125.087 105.628 125.087 105.604 125.087Z" fill="white"/>
<path d="M397.372 176.619H395.748V114.043H513.258V115.667H397.372V176.619Z" fill="#E6E6E6"/>
<path d="M531.278 132.694C543.741 132.694 553.845 122.592 553.845 110.131C553.845 97.669 543.741 87.5669 531.278 87.5669C518.815 87.5669 508.711 97.669 508.711 110.131C508.711 122.592 518.815 132.694 531.278 132.694Z" fill="#E6E6E6"/>
<path d="M528.199 121.874C527.81 121.874 527.425 121.783 527.077 121.609C526.728 121.435 526.425 121.182 526.191 120.87L520.035 112.662C519.837 112.398 519.692 112.098 519.61 111.779C519.528 111.459 519.51 111.127 519.556 110.8C519.603 110.474 519.713 110.16 519.881 109.876C520.049 109.592 520.271 109.344 520.535 109.146C520.799 108.948 521.1 108.804 521.419 108.722C521.739 108.641 522.071 108.623 522.398 108.669C522.724 108.716 523.039 108.827 523.322 108.995C523.606 109.164 523.854 109.386 524.051 109.65L528.079 115.02L538.424 99.5044C538.607 99.2299 538.842 98.994 539.116 98.8103C539.39 98.6266 539.697 98.4987 540.021 98.4339C540.344 98.369 540.677 98.3686 541.001 98.4325C541.324 98.4964 541.632 98.6235 541.906 98.8064C542.181 98.9894 542.417 99.2246 542.6 99.4987C542.784 99.7727 542.911 100.08 542.976 100.404C543.04 100.727 543.041 101.06 542.976 101.384C542.912 101.707 542.785 102.015 542.601 102.289L530.288 120.756C530.066 121.09 529.766 121.366 529.415 121.56C529.063 121.755 528.671 121.862 528.269 121.873C528.246 121.874 528.223 121.874 528.199 121.874Z" fill="white"/>
<path d="M250.758 187.035H233.105C232.63 187.035 230.017 185.652 230.017 183.947V174.142C229.932 166.726 254.215 166.24 254.307 174.142V183.947C254.307 185.652 252.463 187.035 250.758 187.035Z" fill="#E6E6E6"/>
<path d="M251.671 167.496C250.815 167.189 249.906 167.059 248.998 167.113C249.241 167.032 249.464 166.902 249.652 166.729C249.486 166.722 249.321 166.7 249.16 166.663C248.981 166.629 248.814 166.554 248.67 166.443C248.599 166.387 248.543 166.314 248.507 166.231C248.471 166.148 248.456 166.057 248.464 165.967C248.497 165.743 248.707 165.558 248.685 165.332C248.661 165.074 248.362 164.948 248.203 164.743C248.105 164.589 248.061 164.407 248.076 164.225C248.091 164.043 248.165 163.871 248.287 163.735C248.439 163.558 248.624 163.414 248.833 163.31C248.481 163.22 248.11 163.225 247.761 163.326C247.944 163.184 248.082 162.992 248.157 162.772C248.232 162.553 248.242 162.317 248.184 162.092C248.087 161.811 247.922 161.558 247.703 161.355C247.485 161.153 247.22 161.007 246.932 160.932C246.355 160.786 245.758 160.738 245.165 160.789C245.669 160.634 245.593 159.845 245.208 159.485C244.823 159.125 244.272 158.975 243.909 158.593C243.545 158.211 243.575 157.396 244.098 157.332L244.034 157.146C243.763 157.045 243.474 157.003 243.187 157.024C242.899 157.044 242.619 157.126 242.365 157.264C242.112 157.402 241.891 157.593 241.718 157.824C241.545 158.055 241.423 158.32 241.361 158.602C241.266 159.199 241.444 159.86 241.144 160.385C240.762 161.055 239.835 161.131 239.067 161.057C238.313 160.863 237.514 160.972 236.839 161.361C236.63 161.535 236.479 161.771 236.41 162.035C236.34 162.299 236.355 162.579 236.451 162.834C236.548 163.09 236.721 163.309 236.948 163.461C237.175 163.613 237.444 163.691 237.717 163.683C237.212 163.687 236.709 163.753 236.22 163.881L236.691 164.063C236.795 164.096 236.892 164.15 236.974 164.223C237.015 164.26 237.042 164.308 237.054 164.362C237.065 164.416 237.059 164.471 237.038 164.522C236.962 164.658 236.768 164.653 236.614 164.63L235.59 164.476C235.645 164.495 235.695 164.525 235.737 164.565C235.779 164.606 235.811 164.655 235.831 164.709C235.852 164.763 235.859 164.821 235.854 164.879C235.849 164.937 235.831 164.993 235.802 165.042C235.772 165.092 235.732 165.135 235.684 165.167C235.636 165.2 235.581 165.221 235.524 165.229C235.466 165.238 235.408 165.233 235.353 165.216C235.297 165.199 235.246 165.17 235.204 165.13C235.309 165.253 235.393 165.392 235.454 165.542C235.484 165.617 235.495 165.698 235.486 165.779C235.478 165.859 235.451 165.936 235.406 166.004C235.305 166.097 235.177 166.156 235.04 166.173C234.904 166.189 234.765 166.163 234.644 166.097C234.561 166.065 234.477 166.028 234.393 165.993C234.394 166.023 234.397 166.053 234.4 166.082C234.428 166.277 234.496 166.463 234.6 166.63C234.704 166.797 234.842 166.94 235.004 167.051C234.54 167.105 234.113 167.33 233.806 167.682C233.546 168.004 233.399 168.401 233.384 168.814C233.37 169.228 233.49 169.634 233.727 169.973C233.211 169.745 232.645 169.651 232.082 169.701C231.803 169.735 231.546 169.871 231.36 170.082C231.175 170.294 231.073 170.566 231.075 170.847C231.168 171.561 232.051 171.821 232.765 171.91C238.38 172.601 244.058 172.6 249.672 171.908C250.435 171.856 251.182 171.666 251.877 171.347C252.222 171.183 252.521 170.935 252.745 170.625C252.969 170.315 253.111 169.954 253.158 169.574C253.143 169.12 252.994 168.68 252.73 168.31C252.465 167.94 252.097 167.657 251.671 167.496Z" fill="#98C673"/>
<path d="M255.839 175.759C255.776 175.49 255.625 175.249 255.408 175.078C255.191 174.906 254.922 174.813 254.645 174.814C254.103 174.829 253.618 175.216 253.085 175.131C252.642 175.061 252.295 174.675 251.85 174.734C251.442 174.788 251.223 175.186 250.919 175.4H250.138C249.834 175.161 249.685 174.676 249.264 174.54C248.629 174.336 248.119 175.052 247.454 175.179C247.069 175.221 246.681 175.147 246.338 174.966C246.004 174.784 245.64 174.661 245.264 174.602C245.098 174.577 244.929 174.599 244.775 174.667C244.622 174.734 244.491 174.843 244.397 174.982C244.418 174.78 244.154 174.581 243.887 174.568C243.588 174.579 243.297 174.668 243.044 174.828C242.79 174.987 242.496 175.071 242.196 175.07C241.532 175.012 241.206 174.236 240.538 174.228C239.697 174.217 239.361 175.415 238.529 175.313C238.097 175.259 237.864 174.867 237.478 174.699C237.069 174.573 236.632 174.569 236.221 174.687L234.255 175.055C233.678 175.214 233.07 175.22 232.491 175.072C232.069 174.92 231.659 174.589 231.224 174.715C230.846 174.824 230.661 175.249 230.26 175.271C230.003 175.238 229.756 175.154 229.534 175.022C229.326 174.949 229.101 174.938 228.887 174.992C228.673 175.046 228.48 175.162 228.332 175.326C228.112 176.222 228.076 177.155 228.227 178.066C228.221 178.26 228.236 178.454 228.273 178.645L230.251 186.559C230.483 187.772 231.083 188.65 232.319 188.65H251.543C252.142 188.65 252.722 188.441 253.184 188.059C253.646 187.678 253.96 187.147 254.073 186.559L256.051 178.645C256.055 178.624 256.057 178.604 256.061 178.583C256.107 177.636 256.033 176.687 255.839 175.759V175.759Z" fill="#CCCCCC"/>
<path opacity="0.2" d="M232.335 175.163L232.72 180.159C232.848 181.824 232.658 183.466 232.786 185.131C232.858 186.069 233.248 187.03 233.32 187.967C233.329 188.078 233.502 188.079 233.494 187.967L233.109 182.972L232.725 177.977L232.508 175.163C232.5 175.053 232.327 175.052 232.335 175.163L232.335 175.163Z" fill="black"/>
<path opacity="0.2" d="M235.674 175.361L235.824 180.284L235.973 185.206L236.058 187.969C236.061 188.081 236.234 188.081 236.231 187.969L236.081 183.047L235.931 178.125L235.847 175.361C235.844 175.25 235.67 175.25 235.674 175.361Z" fill="black"/>
<path opacity="0.2" d="M238.908 175.656L238.862 180.414L238.817 185.142L238.792 187.823C238.792 187.846 238.802 187.867 238.818 187.883C238.834 187.898 238.856 187.907 238.878 187.907C238.901 187.907 238.922 187.898 238.938 187.883C238.954 187.867 238.964 187.846 238.965 187.823L239.01 183.066L239.055 178.338L239.081 175.656C239.08 175.634 239.071 175.613 239.055 175.597C239.039 175.582 239.017 175.573 238.995 175.573C238.972 175.573 238.951 175.582 238.934 175.597C238.918 175.613 238.909 175.634 238.908 175.656V175.656Z" fill="black"/>
<path opacity="0.2" d="M241.351 175.511L241.446 180.327L241.54 185.114L241.593 187.825C241.594 187.847 241.604 187.868 241.62 187.884C241.636 187.899 241.657 187.908 241.68 187.908C241.702 187.908 241.724 187.899 241.74 187.884C241.756 187.868 241.766 187.847 241.766 187.825L241.672 183.009L241.577 178.222L241.524 175.511C241.523 175.489 241.514 175.467 241.498 175.452C241.482 175.436 241.46 175.427 241.438 175.427C241.415 175.427 241.394 175.436 241.377 175.452C241.361 175.467 241.352 175.489 241.351 175.511V175.511Z" fill="black"/>
<path opacity="0.2" d="M244.912 175.313L245.02 180.258L245.129 185.202L245.189 187.97C245.19 187.992 245.2 188.013 245.216 188.029C245.232 188.045 245.253 188.053 245.276 188.053C245.298 188.053 245.32 188.045 245.336 188.029C245.352 188.013 245.362 187.992 245.362 187.97L245.254 183.025L245.146 178.081L245.085 175.313C245.084 175.291 245.075 175.27 245.059 175.254C245.043 175.238 245.021 175.23 244.999 175.23C244.976 175.23 244.955 175.238 244.938 175.254C244.922 175.27 244.913 175.291 244.912 175.313V175.313Z" fill="black"/>
<path opacity="0.2" d="M247.868 175.463L248.245 180.445L248.622 185.412L248.834 188.212C248.842 188.322 249.016 188.323 249.007 188.212L248.63 183.23L248.253 178.263L248.041 175.463C248.033 175.353 247.86 175.352 247.868 175.463Z" fill="black"/>
<path opacity="0.2" d="M251.152 176.044L251.38 180.602C251.456 182.121 251.07 183.641 251.146 185.16L251.274 187.72C251.28 187.831 251.453 187.831 251.447 187.72C251.371 186.2 251.757 184.681 251.681 183.162L251.453 178.603L251.326 176.044C251.32 175.933 251.147 175.932 251.152 176.044Z" fill="black"/>
<path d="M241.123 163.555C241.49 163.555 241.787 163.349 241.787 163.094C241.787 162.839 241.49 162.632 241.123 162.632C240.757 162.632 240.46 162.839 240.46 163.094C240.46 163.349 240.757 163.555 241.123 163.555Z" fill="#E6E6E6"/>
<path d="M245.335 164.594C245.702 164.594 245.999 164.387 245.999 164.132C245.999 163.877 245.702 163.671 245.335 163.671C244.969 163.671 244.672 163.877 244.672 164.132C244.672 164.387 244.969 164.594 245.335 164.594Z" fill="#3F3D56"/>
<path d="M239.45 166.843C239.817 166.843 240.114 166.637 240.114 166.382C240.114 166.127 239.817 165.92 239.45 165.92C239.084 165.92 238.787 166.127 238.787 166.382C238.787 166.637 239.084 166.843 239.45 166.843Z" fill="#FF6584"/>
<path d="M244.937 167.452C245.169 167.452 245.356 167.321 245.356 167.16C245.356 166.999 245.169 166.868 244.937 166.868C244.705 166.868 244.518 166.999 244.518 167.16C244.518 167.321 244.705 167.452 244.937 167.452Z" fill="#E6E6E6"/>
<path d="M247.599 168.108C247.83 168.108 248.018 167.977 248.018 167.816C248.018 167.655 247.83 167.525 247.599 167.525C247.367 167.525 247.179 167.655 247.179 167.816C247.179 167.977 247.367 168.108 247.599 168.108Z" fill="#3F3D56"/>
<path d="M243.879 169.53C244.111 169.53 244.299 169.399 244.299 169.238C244.299 169.077 244.111 168.947 243.879 168.947C243.648 168.947 243.46 169.077 243.46 169.238C243.46 169.399 243.648 169.53 243.879 169.53Z" fill="#FF6584"/>
<path d="M248.86 169.067C249.092 169.067 249.28 168.936 249.28 168.775C249.28 168.614 249.092 168.484 248.86 168.484C248.629 168.484 248.441 168.614 248.441 168.775C248.441 168.936 248.629 169.067 248.86 169.067Z" fill="#E6E6E6"/>
<path d="M251.522 169.723C251.753 169.723 251.941 169.593 251.941 169.432C251.941 169.271 251.753 169.14 251.522 169.14C251.29 169.14 251.103 169.271 251.103 169.432C251.103 169.593 251.29 169.723 251.522 169.723Z" fill="#3F3D56"/>
<path d="M247.803 171.145C248.034 171.145 248.222 171.015 248.222 170.854C248.222 170.692 248.034 170.562 247.803 170.562C247.571 170.562 247.383 170.692 247.383 170.854C247.383 171.015 247.571 171.145 247.803 171.145Z" fill="#FF6584"/>
<path d="M238.051 167.529C238.083 167.299 237.979 167.095 237.819 167.073C237.66 167.051 237.505 167.22 237.473 167.449C237.442 167.678 237.545 167.882 237.705 167.904C237.865 167.926 238.02 167.758 238.051 167.529Z" fill="#E6E6E6"/>
<path d="M237.038 170.076C237.069 169.846 236.965 169.642 236.806 169.62C236.646 169.598 236.491 169.767 236.46 169.996C236.428 170.225 236.532 170.429 236.691 170.451C236.851 170.473 237.006 170.305 237.038 170.076Z" fill="#3F3D56"/>
<path d="M236.136 166.197C236.168 165.968 236.064 165.764 235.904 165.742C235.745 165.72 235.59 165.888 235.558 166.118C235.527 166.347 235.63 166.551 235.79 166.573C235.95 166.595 236.105 166.427 236.136 166.197Z" fill="#FF6584"/>
<path d="M242.609 166.144C242.64 165.915 242.537 165.711 242.377 165.689C242.217 165.667 242.062 165.835 242.031 166.064C241.999 166.294 242.103 166.498 242.263 166.52C242.422 166.542 242.577 166.373 242.609 166.144Z" fill="#E6E6E6"/>
<path d="M241.596 168.691C241.627 168.462 241.524 168.258 241.364 168.236C241.204 168.214 241.049 168.382 241.018 168.611C240.986 168.841 241.09 169.045 241.249 169.067C241.409 169.089 241.564 168.92 241.596 168.691Z" fill="#3F3D56"/>
<path d="M240.694 164.813C240.726 164.584 240.622 164.38 240.463 164.358C240.303 164.336 240.148 164.504 240.116 164.733C240.085 164.963 240.188 165.167 240.348 165.188C240.508 165.21 240.663 165.042 240.694 164.813Z" fill="#FF6584"/>
<path d="M243.844 163.325C243.875 163.096 243.772 162.892 243.612 162.87C243.452 162.848 243.297 163.016 243.266 163.246C243.234 163.475 243.338 163.679 243.497 163.701C243.657 163.723 243.812 163.555 243.844 163.325Z" fill="#3F3D56"/>
<path d="M242.945 159.448C242.976 159.218 242.873 159.015 242.713 158.993C242.553 158.971 242.398 159.139 242.367 159.368C242.335 159.598 242.439 159.801 242.599 159.823C242.758 159.845 242.913 159.677 242.945 159.448Z" fill="#FF6584"/>
<path d="M406.251 183.609H388.598C388.123 183.609 385.51 182.227 385.51 180.522V170.717C385.426 163.3 409.709 162.815 409.8 170.717V180.522C409.8 182.227 407.956 183.609 406.251 183.609Z" fill="#E6E6E6"/>
<path d="M407.164 164.071C406.308 163.764 405.398 163.634 404.491 163.687C404.733 163.607 404.956 163.476 405.145 163.304C404.979 163.297 404.814 163.275 404.652 163.237C404.474 163.204 404.306 163.129 404.162 163.018C404.091 162.962 404.035 162.889 403.999 162.806C403.964 162.723 403.949 162.632 403.957 162.542C403.99 162.318 404.2 162.133 404.178 161.907C404.153 161.649 403.855 161.523 403.695 161.318C403.598 161.164 403.553 160.982 403.569 160.8C403.584 160.618 403.658 160.446 403.78 160.31C403.931 160.133 404.117 159.989 404.326 159.885C403.973 159.795 403.603 159.8 403.254 159.901C403.437 159.759 403.575 159.567 403.65 159.347C403.725 159.128 403.735 158.892 403.677 158.667C403.58 158.386 403.414 158.133 403.196 157.93C402.978 157.728 402.713 157.582 402.425 157.507C401.848 157.361 401.251 157.313 400.658 157.364C401.162 157.209 401.086 156.42 400.701 156.06C400.315 155.7 399.764 155.55 399.401 155.168C399.038 154.786 399.067 153.971 399.591 153.907L399.526 153.721C399.256 153.62 398.967 153.578 398.679 153.599C398.392 153.619 398.111 153.701 397.858 153.839C397.605 153.977 397.384 154.168 397.211 154.399C397.037 154.63 396.916 154.895 396.854 155.177C396.758 155.774 396.937 156.435 396.637 156.96C396.255 157.63 395.328 157.706 394.56 157.632C393.806 157.438 393.007 157.547 392.332 157.936C392.122 158.11 391.972 158.346 391.903 158.61C391.833 158.874 391.847 159.154 391.944 159.409C392.04 159.665 392.214 159.884 392.441 160.036C392.668 160.188 392.936 160.266 393.209 160.258C392.704 160.262 392.202 160.328 391.713 160.456L392.183 160.638C392.288 160.671 392.385 160.725 392.467 160.798C392.507 160.835 392.535 160.883 392.546 160.937C392.558 160.991 392.552 161.046 392.53 161.097C392.455 161.233 392.26 161.228 392.106 161.205L391.083 161.051C391.138 161.07 391.188 161.1 391.23 161.14C391.272 161.181 391.304 161.23 391.324 161.284C391.344 161.338 391.352 161.396 391.347 161.454C391.342 161.512 391.324 161.568 391.294 161.617C391.265 161.667 391.225 161.71 391.177 161.742C391.129 161.775 391.074 161.796 391.016 161.804C390.959 161.813 390.901 161.808 390.845 161.791C390.79 161.774 390.739 161.745 390.696 161.705C390.802 161.828 390.886 161.967 390.947 162.117C390.976 162.192 390.987 162.273 390.979 162.354C390.971 162.434 390.943 162.511 390.899 162.579C390.798 162.672 390.67 162.731 390.533 162.748C390.396 162.764 390.258 162.738 390.137 162.672C390.054 162.64 389.97 162.602 389.885 162.568C389.887 162.598 389.889 162.628 389.893 162.657C389.921 162.852 389.989 163.038 390.093 163.205C390.197 163.372 390.334 163.515 390.497 163.626C390.033 163.68 389.605 163.905 389.298 164.257C389.039 164.579 388.891 164.976 388.877 165.389C388.863 165.803 388.983 166.209 389.22 166.548C388.703 166.32 388.137 166.226 387.575 166.276C387.296 166.31 387.039 166.446 386.853 166.657C386.667 166.869 386.566 167.141 386.567 167.422C386.661 168.135 387.544 168.396 388.258 168.485C393.872 169.176 399.551 169.175 405.165 168.483C405.928 168.431 406.675 168.241 407.369 167.922C407.715 167.758 408.014 167.51 408.238 167.2C408.462 166.89 408.604 166.529 408.651 166.149C408.636 165.695 408.487 165.255 408.222 164.885C407.958 164.515 407.59 164.231 407.164 164.071V164.071Z" fill="#98C673"/>
<path d="M411.332 172.334C411.27 172.064 411.118 171.824 410.901 171.652C410.684 171.481 410.415 171.388 410.139 171.389C409.596 171.404 409.111 171.791 408.578 171.706C408.136 171.636 407.788 171.25 407.343 171.309C406.935 171.363 406.716 171.761 406.412 171.975H405.631C405.328 171.736 405.178 171.251 404.757 171.115C404.122 170.911 403.612 171.627 402.947 171.754C402.563 171.796 402.174 171.722 401.832 171.541C401.497 171.359 401.133 171.236 400.757 171.177C400.591 171.152 400.422 171.174 400.268 171.242C400.115 171.309 399.984 171.418 399.89 171.557C399.911 171.355 399.647 171.156 399.38 171.143C399.081 171.154 398.79 171.243 398.537 171.403C398.283 171.562 397.989 171.646 397.689 171.645C397.025 171.587 396.699 170.811 396.031 170.803C395.19 170.792 394.854 171.99 394.023 171.887C393.59 171.834 393.357 171.442 392.971 171.274C392.562 171.148 392.126 171.144 391.714 171.262L389.748 171.63C389.171 171.789 388.563 171.795 387.984 171.647C387.562 171.495 387.152 171.164 386.718 171.29C386.339 171.399 386.154 171.824 385.753 171.846C385.496 171.813 385.249 171.729 385.027 171.597C384.819 171.524 384.594 171.513 384.38 171.567C384.166 171.621 383.973 171.737 383.825 171.901C383.605 172.797 383.569 173.73 383.72 174.641C383.714 174.835 383.73 175.029 383.766 175.22L385.744 183.134C385.976 184.347 386.577 185.225 387.813 185.225H407.036C407.635 185.225 408.215 185.016 408.677 184.634C409.139 184.253 409.453 183.722 409.566 183.134L411.544 175.22C411.548 175.199 411.55 175.179 411.554 175.158C411.601 174.211 411.526 173.262 411.332 172.334V172.334Z" fill="#CCCCCC"/>
<path opacity="0.2" d="M387.828 171.738L388.213 176.734C388.341 178.399 388.151 180.041 388.279 181.706C388.352 182.643 388.741 183.604 388.814 184.542C388.822 184.653 388.995 184.653 388.987 184.542L388.602 179.547L388.218 174.552L388.002 171.738C387.993 171.628 387.82 171.627 387.828 171.738L387.828 171.738Z" fill="black"/>
<path opacity="0.2" d="M391.167 171.936L391.316 176.859L391.466 181.781L391.55 184.544C391.554 184.655 391.727 184.656 391.723 184.544L391.574 179.622L391.424 174.7L391.34 171.936C391.336 171.825 391.163 171.825 391.167 171.936Z" fill="black"/>
<path opacity="0.2" d="M394.401 172.231L394.356 176.989L394.31 181.717L394.285 184.398C394.285 184.421 394.295 184.442 394.311 184.457C394.327 184.473 394.349 184.482 394.371 184.482C394.394 184.482 394.415 184.473 394.431 184.457C394.447 184.442 394.457 184.421 394.458 184.398L394.503 179.641L394.549 174.913L394.574 172.231C394.573 172.209 394.564 172.188 394.548 172.172C394.532 172.157 394.51 172.148 394.488 172.148C394.465 172.148 394.444 172.157 394.428 172.172C394.411 172.188 394.402 172.209 394.401 172.231Z" fill="black"/>
<path opacity="0.2" d="M396.844 172.086L396.939 176.902L397.033 181.689L397.086 184.4C397.087 184.422 397.097 184.443 397.113 184.459C397.129 184.474 397.151 184.483 397.173 184.483C397.195 184.483 397.217 184.474 397.233 184.459C397.249 184.443 397.259 184.422 397.26 184.4L397.165 179.584L397.071 174.797L397.017 172.086C397.017 172.063 397.007 172.042 396.991 172.027C396.975 172.011 396.953 172.002 396.931 172.002C396.908 172.002 396.887 172.011 396.871 172.027C396.854 172.042 396.845 172.063 396.844 172.086Z" fill="black"/>
<path opacity="0.2" d="M400.405 171.888L400.514 176.832L400.622 181.777L400.682 184.544C400.683 184.567 400.693 184.588 400.709 184.604C400.725 184.619 400.747 184.628 400.769 184.628C400.792 184.628 400.813 184.619 400.829 184.604C400.845 184.588 400.855 184.567 400.856 184.544L400.747 179.6L400.639 174.656L400.578 171.888C400.578 171.866 400.568 171.845 400.552 171.829C400.536 171.813 400.514 171.805 400.492 171.805C400.469 171.805 400.448 171.813 400.432 171.829C400.416 171.845 400.406 171.866 400.405 171.888V171.888Z" fill="black"/>
<path opacity="0.2" d="M403.361 172.038L403.739 177.02L404.115 181.987L404.327 184.787C404.336 184.897 404.509 184.898 404.5 184.787L404.123 179.805L403.746 174.838L403.534 172.038C403.526 171.928 403.353 171.927 403.361 172.038Z" fill="black"/>
<path opacity="0.2" d="M406.646 172.619L406.873 177.177C406.949 178.696 406.563 180.216 406.639 181.735L406.767 184.295C406.773 184.406 406.946 184.406 406.94 184.295C406.864 182.775 407.25 181.256 407.174 179.736L406.947 175.178L406.819 172.619C406.813 172.508 406.64 172.507 406.646 172.619Z" fill="black"/>
<path d="M396.617 160.13C396.983 160.13 397.28 159.924 397.28 159.669C397.28 159.414 396.983 159.207 396.617 159.207C396.25 159.207 395.953 159.414 395.953 159.669C395.953 159.924 396.25 160.13 396.617 160.13Z" fill="#E6E6E6"/>
<path d="M400.829 161.169C401.195 161.169 401.492 160.962 401.492 160.707C401.492 160.452 401.195 160.246 400.829 160.246C400.462 160.246 400.165 160.452 400.165 160.707C400.165 160.962 400.462 161.169 400.829 161.169Z" fill="#3F3D56"/>
<path d="M394.943 163.418C395.31 163.418 395.607 163.212 395.607 162.957C395.607 162.702 395.31 162.495 394.943 162.495C394.577 162.495 394.28 162.702 394.28 162.957C394.28 163.212 394.577 163.418 394.943 163.418Z" fill="#FF6584"/>
<path d="M400.43 164.027C400.662 164.027 400.849 163.896 400.849 163.735C400.849 163.574 400.662 163.443 400.43 163.443C400.198 163.443 400.011 163.574 400.011 163.735C400.011 163.896 400.198 164.027 400.43 164.027Z" fill="#E6E6E6"/>
<path d="M403.092 164.683C403.323 164.683 403.511 164.552 403.511 164.391C403.511 164.23 403.323 164.1 403.092 164.1C402.86 164.1 402.672 164.23 402.672 164.391C402.672 164.552 402.86 164.683 403.092 164.683Z" fill="#3F3D56"/>
<path d="M399.372 166.105C399.604 166.105 399.792 165.974 399.792 165.813C399.792 165.652 399.604 165.521 399.372 165.521C399.141 165.521 398.953 165.652 398.953 165.813C398.953 165.974 399.141 166.105 399.372 166.105Z" fill="#FF6584"/>
<path d="M404.353 165.642C404.585 165.642 404.773 165.511 404.773 165.35C404.773 165.189 404.585 165.059 404.353 165.059C404.122 165.059 403.934 165.189 403.934 165.35C403.934 165.511 404.122 165.642 404.353 165.642Z" fill="#E6E6E6"/>
<path d="M407.015 166.298C407.247 166.298 407.434 166.168 407.434 166.007C407.434 165.845 407.247 165.715 407.015 165.715C406.783 165.715 406.596 165.845 406.596 166.007C406.596 166.168 406.783 166.298 407.015 166.298Z" fill="#3F3D56"/>
<path d="M403.296 167.72C403.527 167.72 403.715 167.59 403.715 167.428C403.715 167.267 403.527 167.137 403.296 167.137C403.064 167.137 402.876 167.267 402.876 167.428C402.876 167.59 403.064 167.72 403.296 167.72Z" fill="#FF6584"/>
<path d="M393.544 164.104C393.576 163.874 393.472 163.67 393.312 163.648C393.153 163.626 392.998 163.794 392.966 164.024C392.934 164.253 393.038 164.457 393.198 164.479C393.357 164.501 393.512 164.333 393.544 164.104Z" fill="#E6E6E6"/>
<path d="M392.531 166.651C392.562 166.421 392.459 166.217 392.299 166.195C392.139 166.173 391.984 166.341 391.953 166.571C391.921 166.8 392.025 167.004 392.184 167.026C392.344 167.048 392.499 166.88 392.531 166.651Z" fill="#3F3D56"/>
<path d="M391.629 162.772C391.661 162.543 391.557 162.339 391.398 162.317C391.238 162.295 391.083 162.463 391.051 162.693C391.02 162.922 391.124 163.126 391.283 163.148C391.443 163.17 391.598 163.002 391.629 162.772Z" fill="#FF6584"/>
<path d="M398.102 162.719C398.134 162.49 398.03 162.286 397.87 162.264C397.711 162.242 397.556 162.41 397.524 162.639C397.492 162.869 397.596 163.073 397.756 163.094C397.915 163.116 398.07 162.948 398.102 162.719Z" fill="#E6E6E6"/>
<path d="M397.088 165.266C397.12 165.037 397.016 164.833 396.857 164.811C396.697 164.789 396.542 164.957 396.51 165.186C396.479 165.416 396.583 165.62 396.742 165.641C396.902 165.663 397.057 165.495 397.088 165.266Z" fill="#3F3D56"/>
<path d="M396.187 161.388C396.219 161.158 396.115 160.955 395.956 160.933C395.796 160.911 395.641 161.079 395.609 161.308C395.578 161.538 395.682 161.741 395.841 161.763C396.001 161.785 396.156 161.617 396.187 161.388Z" fill="#FF6584"/>
<path d="M399.336 159.9C399.368 159.671 399.264 159.467 399.105 159.445C398.945 159.423 398.79 159.591 398.758 159.821C398.727 160.05 398.831 160.254 398.99 160.276C399.15 160.298 399.305 160.13 399.336 159.9Z" fill="#3F3D56"/>
<path d="M398.437 156.023C398.469 155.793 398.365 155.59 398.206 155.568C398.046 155.546 397.891 155.714 397.859 155.943C397.828 156.173 397.932 156.376 398.091 156.398C398.251 156.42 398.406 156.252 398.437 156.023Z" fill="#FF6584"/>
</svg>
